# ProBuilder 4.2.3
# https://unity3d.com/unity/features/worldbuilding/probuilder
# 12/1/2020 4:54:47 PM

mtllib ./Couch.mtl
o Couch

g Couch
v -3.580721 -0.152665 -4.08
v -3.580721 -0.1526642 2.837677
v -3.580721 0.7499881 -4.08
v -3.580721 0.7499889 2.837677
v -3.824605 1.000333 -3.753346
v -3.824606 1.000334 2.511022
v -5.553922 1.000333 -3.988157
v -5.553924 1.005481 2.745835
v -5.923158 2.008973 -4.196555
v -5.923165 2.00898 2.954246
v -6.104948 2.619618 -3.992159
v -6.104955 2.619624 2.749852
v -6.216823 2.678542 -4.08
v -6.216828 2.678547 2.837688
v -6.621444 2.448496 -4.08
v -6.621445 2.448496 2.837677
v -5.797808 -0.1526644 2.837677
v -5.797808 0.7499887 3.096977
v -5.797808 -0.1526652 -4.08
v -5.797807 0.7499878 -4.339301
v -6.621445 -0.1526645 2.837677
v -6.621444 -0.1526653 -4.08
v -5.806632 1.689538 2.811141
v -5.806628 1.694681 -4.053459
v -5.864788 1.217004 -4.339301
v -5.867943 1.840708 -4.339302
v -5.864788 1.217005 3.096977
v -5.867949 1.840713 3.096988
v -5.501832 1.552266 -4.024945
v -5.745717 1.618838 -4.340858
v -5.504976 1.546668 2.757639
v -5.748862 1.612254 3.073554
v -4.637171 1.651493 -4.071769
v -4.14387 1.651494 -4.016202
v -4.174356 1.63485 -3.941355
v -4.637171 1.63485 -3.995545
v -4.204843 1.552266 -3.866506
v -4.637172 1.552266 -3.919319
v -5.623774 1.651493 -4.182903
v -5.130472 1.651493 -4.127336
v -5.099988 1.63485 -4.049735
v -5.562803 1.63485 -4.103924
v -5.069502 1.552266 -3.972132
v -5.191444 1.618838 -4.282537
v -5.160958 1.668136 -4.204937
v -5.684744 1.668136 -4.261881
v -4.637172 1.618838 -4.224216
v -4.637171 1.668136 -4.147993
v -4.0829 1.618838 -4.165896
v -4.113384 1.668137 -4.09105
v -4.640316 1.546965 2.652011
v -4.640316 1.585554 2.728238
v -5.103132 1.585344 2.782429
v -5.072646 1.546817 2.704825
v -4.640316 1.602074 2.804463
v -5.133618 1.601802 2.860031
v -5.62692 1.60153 2.9156
v -5.565948 1.585133 2.836621
v -3.775655 1.547263 2.546383
v -3.714684 1.585975 2.619856
v -4.1775 1.585765 2.674047
v -4.207985 1.547114 2.599197
v -3.653713 1.602619 2.693326
v -4.147015 1.602346 2.748895
v -3.592742 1.619262 2.766797
v -4.116529 1.618928 2.823742
v -3.53177 1.613836 2.840265
v -4.086043 1.61344 2.898587
v -4.640316 1.613045 2.956909
v -4.640316 1.618594 2.880687
v -5.164104 1.61826 2.937633
v -5.194589 1.612649 3.015231
v -5.687891 1.617926 2.994578
v -3.702663 0.8751606 -3.916673
v -3.641692 0.8125744 -3.998337
v -3.763634 0.9377469 -3.83501
v -3.650568 1.651494 -3.960635
v -3.665811 1.647333 -3.942268
v -3.681054 1.643172 -3.9239
v -3.696297 1.639011 -3.905533
v -3.71154 1.634851 -3.887165
v -3.726783 1.614204 -3.868797
v -3.742027 1.593558 -3.850429
v -3.75727 1.572912 -3.832061
v -3.772513 1.552266 -3.813693
v -3.528627 1.618838 -4.107575
v -3.543869 1.631163 -4.089208
v -3.559112 1.643488 -4.070841
v -3.574354 1.655813 -4.052474
v -3.589597 1.668137 -4.034106
v -3.60484 1.663976 -4.015738
v -3.620082 1.659815 -3.997371
v -3.635325 1.655655 -3.979003
v -3.785536 1.414283 -3.798606
v -3.798559 1.276299 -3.78352
v -3.811582 1.138316 -3.768433
v -3.567697 0.9672006 -4.086894
v -3.554674 1.184413 -4.093788
v -3.54165 1.401626 -4.100681
v -3.576966 1.464396 -4.055069
v -3.612283 1.527166 -4.009458
v -3.610063 1.297629 -4.020931
v -3.665453 1.410844 -3.948074
v -3.625878 1.055101 -4.009634
v -3.684058 1.143002 -3.932374
v -3.74782 1.140659 -3.850403
v -3.732006 1.343572 -3.865797
v -3.70374 1.502201 -3.899252
v -3.744638 1.458242 -3.848929
v -3.673254 1.527008 -3.935987
v -3.700018 1.570606 -3.902392
v -3.654289 1.591331 -3.957495
v -3.642768 1.53533 -3.972723
v -3.608561 1.595571 -4.012598

vt 0 0
vt -6 0
vt 0 1.4
vt -6 1.4
vt -0.1 0.1
vt -5.9 0.1
vt -0.1 1.9
vt -5.9 1.9
vt -0.1 1.7
vt -5.9 1.7
vt -0.1 2.9
vt -5.9 2.9
vt 2.667936E-08 1.521298
vt -5.999998 1.521298
vt 5.307132E-08 1.844962
vt -6 1.844962
vt -2 0
vt -2 1.4
vt 2 0
vt 2 1.4
vt 6 0
vt 6 3
vt -2.154309E-07 3
vt -5.920339 1.885259
vt -0.07965931 1.885259
vt -6.194507 2.744704
vt 0.1945105 2.744704
vt 1.948209 0.01545466
vt 1.897359 1.063392
vt 1.956216 1.602168
vt 2.671959 3.019443
vt 2.671959 0.021196
vt 1.938603 3.176381
vt 2.165013 3.109522
vt 1.488174 1.675874
vt 1.532276 2.21717
vt -1.315378 0.220947
vt -1.315378 3.219194
vt -0.5996348 1.801919
vt -0.5407774 1.263143
vt -0.5916271 0.2152057
vt -1.609735 2.752477
vt -1.26718 1.777976
vt -1.211826 1.23911
vt -1.918291 2.664393
vt 0.1010919 2.982977
vt -6.101107 2.982984
vt -0.02302129 2.605559
vt -5.976985 2.599862
vt 1.478217 3.586168
vt 1.498685 2.841918
vt 1.602517 3.657984
vt 1.556594 2.619402
vt -5.959496 2.963121
vt -5.77246 3.683775
vt -6.086133 2.764541
vt -5.842288 3.772534
vt -5.923827 3.674653
vt -0.07618961 3.674646
vt -6.00001 3.79632
vt -9.389448E-07 3.796315
vt 0.1728581 2.966967
vt 0.04524359 2.590718
vt 0.294904 2.765532
vt -6.160584 2.916695
vt -6.033426 2.534567
vt -6.282872 2.715408
vt -2.003328 2.11998
vt -1.772492 1.317989
vt -1.72741 1.955487
vt 1.998023 1.041287
vt 2.058442 1.579911
vt 2.061289 2.299249
vt 1.951023 2.04336
vt 2.618283 2.110139
vt 2.660365 1.485744
vt 2.894295 2.274976
vt -3.191848 1.575496
vt -3.132499 1.036864
vt -3.085318 2.031349
vt -3.19465 2.294839
vt 0.4481364 0.8999481
vt 0.4011077 0.4548247
vt 0.3335629 0.4824341
vt 0.3794262 0.9000589
vt 0.2493829 0.5119702
vt 0.2940809 0.9020968
vt 0.5421937 1.790194
vt 0.4951649 1.345071
vt 0.4252895 1.317684
vt 0.4711528 1.735309
vt 0.3387789 1.292223
vt 0.3834769 1.68235
vt 0.6676406 1.901891
vt 0.6182812 1.401772
vt 0.5650405 1.372458
vt 0.6132346 1.845079
vt 0.5689219 0.9016528
vt 0.5168466 0.8998368
vt 0.5195625 0.4015335
vt 0.4686526 0.4272157
vt 0.3470621 2.991433
vt 0.3347773 2.75631
vt 0.2694035 2.744925
vt 0.199977 2.690744
vt 0.1305506 2.636563
vt 0.05707143 2.539585
vt 0.09051827 2.858408
vt -6.147457 0.9440625
vt -6.222846 0.9432916
vt -6.26818 1.360975
vt -6.191656 1.334246
vt -6.291637 0.9432536
vt -6.338107 1.388437
vt -6.384577 1.83362
vt -6.313514 1.778659
vt -6.235856 1.72443
vt -6.059058 0.1636948
vt -6.132176 0.1079239
vt -6.177511 0.5256076
vt -6.103258 0.5538787
vt -6.198698 0.05288675
vt -6.245167 0.4980704
vt -6.265219 -0.002150571
vt -6.312824 0.4705328
vt -6.325144 -0.05645423
vt -6.373884 0.4437283
vt -6.422624 0.9439109
vt -6.360429 0.9432157
vt -6.408033 1.415899
vt -6.471364 1.444093
vt -6.520103 1.944276
vt -6.455638 1.888581
vt 1.662739 2.191336
vt 2.055413 2.191073
vt 2.448086 2.19081
vt 2.490657 1.566529
vt 0.9174683 1.560132
vt 0.8773932 2.191861
vt 1.270066 2.191599
vt -4.471244 1.913248
vt -4.387079 1.894019
vt -4.302912 1.849347
vt -4.251083 1.218407
vt -4.609582 0.9294402
vt -4.639573 1.926265
vt -4.555409 1.932478
vt -0.589856 2.011446
vt -0.6335295 1.015184
vt -2.646096 1.01513
vt -2.600045 2.009665
vt -2.097497 2.01011
vt -1.59495 2.010555
vt -1.092403 2.011001
vt -6.286406 1.997647
vt -6.174938 1.714963
vt -6.254802 1.772398
vt -6.334664 1.809373
vt -6.414525 1.846348
vt -6.494383 1.862864
vt -6.540334 2.133676
vt -0.1416605 1.009563
vt -0.07083018 0.9188131
vt 1.609325E-07 0.8280635
vt -6 0.8280635
vt -5.716678 1.191061
vt -0.2833212 1.191061
vt -0.2124909 1.100312
vt 0.3540792 0.009701052
vt 0.3374843 0.02347799
vt 0.3208894 0.03725494
vt 0.3042945 0.05103189
vt 0.2876996 0.06480883
vt 0.266946 0.07906753
vt 0.2461923 0.09332621
vt 0.2254386 0.1075849
vt 0.2046849 0.1218436
vt 0.4702033 -0.0985858
vt 0.4577671 -0.08529092
vt 0.4453311 -0.07199604
vt 0.432895 -0.05870117
vt 0.4204589 -0.04540629
vt 0.403864 -0.03162946
vt 0.387269 -0.01785262
vt 0.3706741 -0.004075778
vt -0.1434149 1.941671
vt -0.1534715 1.781895
vt -0.163528 1.622118
vt -0.1735845 1.462342
vt -0.183641 1.302566
vt -1.756831 1.303403
vt -1.714103 1.940969
vt -1.321431 1.941144
vt -0.9287591 1.94132
vt -0.536087 1.941495
vt 1.463438 2.043171
vt 1.965984 2.043123
vt 2.012568 1.041106
vt -5.509235E-09 1.04088
vt -0.01105028 1.291488
vt -0.02210056 1.542096
vt -0.03315084 1.792704
vt -0.04420111 2.043313
vt 0.4583452 2.043265
vt 0.9608915 2.043218
vt 0.006519919 2.071655
vt 0.0275628 2.057443
vt -0.01432505 1.865077
vt -0.0651044 1.93748
vt 0.04860569 2.043232
vt 0.0364543 1.792673
vt 0.02430291 1.542115
vt -0.0562129 1.672711
vt -0.1367287 1.803306
vt -0.07290626 1.392964
vt -0.1579641 1.494371
vt 0.01215152 1.291557
vt -0.08959962 1.113217
vt -0.1791994 1.185435
vt -0.2493927 1.49169
vt -0.2299863 1.725726
vt -0.2687991 1.257654
vt -0.3583989 1.329872
vt -0.3408214 1.489009
vt -0.3232439 1.648146
vt -0.2460012 2.014045
vt -0.1913649 1.908676
vt -0.2485157 1.857979
vt -0.267045 1.990232
vt -0.3056664 1.807283
vt -0.2880889 1.966419
vt -0.1618266 2.071272
vt -0.1492776 1.937289
vt -0.1871175 1.987574
vt -0.18287 2.066472
vt -0.2249573 2.037858
vt -0.2039135 2.061671
vt -0.1197396 2.080874
vt -0.09869616 2.085675
vt -0.1239869 2.011482
vt -0.1407831 2.076073
vt -0.07765272 2.090476
vt -0.1071907 1.946891
vt -0.03556585 2.100077
vt -0.01452296 2.085866
vt -0.06085684 2.016378
vt -0.05660928 2.095276

vn 1.108543 8.882871E-08 -1.340301E-07
vn 0 0.8670536 2.52779E-08
vn 0.00203566 0.8670505 -0.0005858891
vn 0.004071321 0.8670474 -0.001171804
vn 1.079661 0.1966318 6.729064E-07
vn -0.6517933 0.7013429 -1.116658E-06
vn 0 1.374419E-07 1.152946
vn 0.06055819 -0.09099563 1.136574
vn 0.1211164 -0.1819914 1.120202
vn 0 -2.714759E-07 -1.152946
vn 0.06055833 -0.09099626 -1.136574
vn 0.1211167 -0.1819922 -1.120202
vn -1.108543 -1.076928E-07 8.821614E-08
vn 1.06497 0.2407037 -0.0003251429
vn 1.065576 0.2390533 -5.006825E-06
vn 1.066181 0.2374029 0.0003151293
vn 4.73132E-07 -0.1830883 -1.126949
vn -0.1402116 -0.1038465 -1.120958
vn -0.3136677 -0.01230248 -1.105001
vn -0.3469119 -1.642402E-07 -1.095036
vn -0.2091117 -0.06923109 -1.112317
vn -0.3716624 0.04934173 -1.03757
vn -0.09358199 0.1006961 -1.141001
vn -0.6497428 -0.002012664 -0.9341386
vn -0.2091115 -0.06923062 1.112317
vn -0.3469113 9.683671E-08 1.095036
vn -0.3136671 -0.01230219 1.105002
vn -0.1402115 -0.103846 1.120958
vn 0 -0.1830875 1.126949
vn -0.3716868 0.04933204 1.037559
vn -0.6497697 -0.002023693 0.9341184
vn -0.09360404 0.1006878 1.141
vn 1.064677 0.241497 5.968358E-07
vn 1.065351 0.2396633 0.0001581457
vn 1.066025 0.2378296 0.0003156945
vn 0.7750312 0.280334 -0.7352359
vn 0.9015906 0.2870674 -0.4587027
vn 1.02815 0.2938007 -0.1821696
vn 1.081296 0.1838032 -0.06934276
vn 0.931699 0.2524826 0.313624
vn 0.7821023 0.321162 0.6965908
vn 0.6191766 0.719196 -4.112713E-07
vn 1.067369 0.2323858 -0.03775492
vn 1.068318 0.2301425 0.03267559
vn -0.06351035 0.04699271 1.149355
vn -0.009391767 -0.0008241809 -1.152904
vn -0.01154346 -0.0004340754 -1.152881
vn -0.01369515 -4.396988E-05 -1.152858
vn -0.1686649 0.02338436 -1.139099
vn 0.1757037 0.006608123 1.137802
vn 0.1434037 0.01258253 1.143136
vn 0.2080038 0.0006337218 1.132468
vn -0.03371437 0.833124 0.3174156
vn -0.03264851 0.8339899 0.3135194
vn -0.03478023 0.8322581 0.3213118
vn -0.1038025 0.4969499 0.9385602
vn -0.1064667 0.4921264 0.9427574
vn -0.1011383 0.5017734 0.9343632
vn -0.0352077 0.828477 0.3381009
vn -0.03546653 0.8293873 0.3340749
vn -0.03572535 0.8302976 0.3300489
vn -0.03431286 0.8304555 0.3295085
vn -0.03454622 0.8313568 0.3254102
vn -0.1047487 0.4873536 0.9473046
vn -0.1030308 0.4825807 0.9518517
vn -0.1075221 0.4817001 0.9521031
vn -0.1057486 0.4771396 0.9563383
vn -0.103975 0.4725792 0.9605736
vn 0.07500845 0.641907 -0.7711229
vn 0.07574777 0.6452384 -0.7660824
vn 0.07648708 0.6485698 -0.7610419
vn 0.07397962 0.6490768 -0.7605458
vn 0.07468019 0.652468 -0.7552906
vn 0.07538075 0.6558594 -0.7500356
vn -0.03326456 0.831441 0.3251774
vn -0.03346051 0.8322887 0.3213234
vn -0.03306861 0.8305933 0.3290315
vn -0.03409573 0.8295997 0.3332989
vn -0.03387857 0.8287438 0.3370898
vn 0.07367705 0.6592073 -0.7449797
vn 0.07197367 0.6625552 -0.7399238
vn -0.03250844 0.833104 0.3176479
vn -0.03155571 0.8339193 0.3139724
vn 1.016133 0.3421659 0.0732988
vn 0.2907137 0.5342003 -0.1826149
vn -0.04914645 0.7760761 -0.205856
vn 0.3364117 0.8259177 0.02681513
vn 0.3574639 0.7037356 0.392978
vn 0.3785169 0.5815533 0.7591424
vn 0.3265535 0.6603579 0.08950858
vn -0.07295551 0.7177116 -0.6424335
vn -0.07218453 0.7145707 -0.6486445
vn -0.07141353 0.7114298 -0.6548554
vn -0.03516067 0.8327277 -0.3191074
vn -0.03495209 0.8319286 -0.3227738
vn -0.0347435 0.8311295 -0.3264403
vn -0.03577437 0.8301839 -0.3305269
vn -0.03554326 0.8293787 -0.3341299
vn -0.03600548 0.8309891 -0.3269239
vn -0.07278433 0.7046313 -0.667566
vn -0.0736132 0.7077352 -0.661595
vn -0.07444207 0.7108392 -0.6556241
vn -0.06953523 0.7268617 -0.6243644
vn -0.06755168 0.7295598 -0.6190494
vn -0.07151879 0.7241635 -0.6296793
vn -0.03346284 0.8350058 -0.3085884
vn -0.03256645 0.8356754 -0.3054899
vn -0.03435923 0.8343362 -0.3116869
vn -0.03325822 0.8342667 -0.3121447
vn -0.03420943 0.8334973 -0.315626
vn -0.0708769 0.7207897 -0.6365207
vn -0.06879803 0.7238678 -0.630608
vn -0.03245446 0.8349031 -0.3091977
vn -0.03165114 0.8355386 -0.3062544
vn 0.009535066 0.8633457 0.1060387
vn 0.009161486 0.8634527 0.1045345
vn 0.009908644 0.8632387 0.107543
vn 0.009472939 0.8632283 0.1077336
vn 0.009869808 0.8631052 0.1094125
vn 0.01026668 0.862982 0.1110915
vn -0.03313236 0.8334796 -0.3158353
vn -0.03398363 0.8327541 -0.3191238
vn -0.0322811 0.834205 -0.3125468
vn -0.03380784 0.8320028 -0.32257
vn -0.03363264 0.8312515 -0.3260163
vn 0.01020428 0.8628523 0.1128503
vn 0.01014233 0.8627227 0.1146091
vn 0.01057131 0.8625708 0.1165589
vn 0.01050163 0.8624383 0.1182994
vn 0.01064099 0.8627033 0.1148185
vn -0.03435593 0.8296134 -0.333233
vn -0.03455013 0.8303711 -0.3298379
vn -0.1338799 0.03534402 -1.143422
vn -0.1292901 0.02127482 -1.144728
vn -0.1339308 0.0261447 -1.143915
vn -0.1338295 0.04454357 -1.14293
vn -0.1291382 0.04887314 -1.143251
vn 0.8424293 -0.01800974 -0.7490211
vn 0.8449447 -0.01862526 -0.7459117
vn 0.8474607 -0.01924106 -0.7428015
vn 0.8454394 -0.01989522 -0.7451607
vn 0.8568211 -0.02846493 -0.7305613
vn 0.8474387 -0.02210779 -0.7424799
vn 0.8402432 -0.01688032 -0.7517093
vn 0.1115863 -0.005811451 1.147064
vn 0.1156825 -0.002699757 1.146615
vn 0.1156598 0.01033933 1.146537
vn 0.1115522 0.01374718 1.146948
vn 0.1156711 0.003819787 1.146576
vn 0.5801072 0.6760751 0.08062894
vn 0.544475 0.74239 -0.1846297
vn 0.5326407 0.7492985 -0.01365269
vn 0.5208066 0.7562068 0.1573238
vn 0.4062961 0.7757555 0.2509992
vn 0.657224 0.5627859 0.1365633
vn 1.022663 0.3302677 -0.07154826
vn 0.8817419 0.5255015 -6.942626E-08
vn -0.03227441 0.8352711 0.3074577
vn -0.03187194 0.8355732 0.3060632
vn -0.0328761 0.8348209 0.3095357
vn -0.03388128 0.8340687 0.3130071
vn -0.1012351 0.5092282 0.9271736
vn -0.1001915 0.5109724 0.9256176
vn -0.1028006 0.5066102 0.9295095
vn -0.1054103 0.502246 0.933403
vn 0.07165635 0.667678 -0.731752
vn 0.0709966 0.6688906 -0.729879
vn 0.07264487 0.6658636 -0.7345544
vn 0.07429394 0.6628368 -0.7392294
vn -0.03120772 0.8351318 0.3082463
vn -0.03084686 0.8354188 0.3069211
vn -0.0317471 0.8347043 0.3102204
vn -0.1287909 0.07795671 1.140437
vn -0.1359871 0.06805311 1.140554
vn -0.136139 0.05434711 1.141899
vn -0.1290947 0.05054462 1.143128
vn -0.1317301 0.06851282 1.141022
vn 0.1140095 -0.01796513 -1.146518
vn 0.1115775 -0.00525513 -1.14707
vn 0.1177223 -0.007905045 -1.146355
vn 0.1177007 -0.01761341 -1.146133
vn 0.1115344 -0.02467186 -1.146626
vn 0.835065 -0.007235001 0.758206
vn 0.8397993 -0.01167217 0.752368
vn 0.8445336 -0.01610934 0.7465301
vn 0.831841 -0.01278876 0.761901
vn 0.8373627 -0.01513542 0.755195
vn 0.8428844 -0.01748207 0.748489
vn 0.845357 -0.01689243 0.7454886
vn 0.8461805 -0.01767552 0.7444472
vn 0.847309 -0.01684439 0.7430915
vn 0.8468523 -0.01569866 0.7436968
vn 0.8463956 -0.01455293 0.7443022
vn 0.8539348 -0.01192071 0.7350117
vn 0.8561203 -0.01347217 0.7321971
vn 0.8583057 -0.01502364 0.7293825
vn 0.8505364 -0.01445556 0.7391818
vn 0.8528525 -0.01633104 0.7362059
vn 0.8551686 -0.01820653 0.7332301
vn 0.8608661 -0.01686138 0.726023
vn 0.8634265 -0.0186991 0.7226636
vn 0.8655137 -0.015556 0.72009
vn 0.8631434 -0.01402782 0.7232025
vn 0.8607731 -0.01249964 0.726315
vn 0.8564467 -0.0121327 0.7318373
vn 0.8592234 -0.01106678 0.7283226
vn 0.8620001 -0.01000087 0.7248077
vn 0.8645833 -0.01152355 0.7214159
vn 0.8671665 -0.01304619 0.718024
vn 0.8687043 -0.01069504 0.7160794
vn 0.8653137 -0.007815553 0.7205392
vn 0.8619232 -0.004936061 0.7249989
vn 0.8582225 -0.007085627 0.7296703
vn 0.8545218 -0.009235256 0.7343418
vn 0.8465713 -0.007898523 0.7442635
vn 0.8481677 -0.006112742 0.7423163
vn 0.8497642 -0.004326961 0.7403691
vn 0.8505439 -0.005406243 0.7393876
vn 0.8508084 -0.004754841 0.7390655
vn 0.851073 -0.004103439 0.7387434
vn 0.8501785 -0.003860683 0.7398584
vn 0.8505927 -0.003394483 0.7393479
vn 0.8489261 -0.003170216 0.7414188
vn 0.8465336 -0.004225701 0.7443514
vn 0.8441411 -0.005281186 0.7472842
vn 0.8420136 -0.008932177 0.7498118
vn 0.8432722 -0.009391291 0.7482734
vn 0.840755 -0.008473063 0.7513503
vn 0.8442156 -0.00897698 0.7471305
vn 0.844376 -0.00926677 0.7469285
vn 0.8451887 -0.008760962 0.7459443
vn 0.8455064 -0.007926393 0.7455702
vn 0.8458241 -0.007091824 0.7451962
vn 0.8432894 -0.00778252 0.7482735
vn 0.8409689 -0.009651328 0.7510663
vn 0.8391878 -4.003175E-06 0.7533275
vn 0.8383954 -0.004137046 0.7542402
vn 0.837603 -0.008270088 0.7551529
vn 0.8354576 -0.00655291 0.7577491
vn 0.8360193 -0.007378584 0.7570639
vn 0.836581 -0.008204258 0.7563787
vn 0.8375514 -0.008531676 0.7552096
vn 0.8374999 -0.008793257 0.7552661
vn 0.8385884 -0.00906167 0.753953
vn 0.8396737 -0.008767827 0.7526492

usemtl Couch
f 25/30/19 22/32/21 15/31/20
f 20/29/18 19/28/17 22/32/21
f 25/30/19 20/29/18 22/32/21
f 21/37/25 18/40/28 27/39/27
f 21/37/25 17/41/29 18/40/28
f 16/38/26 21/37/25 27/39/27
f 9/62/43 24/63/43 26/64/43
f 28/67/44 23/66/44 10/65/44
f 24/68/45 7/69/45 29/70/45
f 31/75/49 8/76/49 23/77/49
f 24/108/90 30/103/85 26/102/84
f 24/108/90 46/104/86 30/103/85
f 24/108/90 39/105/87 46/104/86
f 42/106/88 39/105/87 24/108/90
f 29/107/89 42/106/88 24/108/90
f 31/136/134 54/135/134 8/137/135
f 54/135/134 51/134/133 8/137/135
f 6/138/136 8/137/135 51/134/133
f 62/140/137 6/138/136 51/134/133
f 59/139/137 6/138/136 62/140/137
f 6/144/141 59/143/140 60/142/139
f 60/142/139 63/141/138 6/144/141
f 63/141/138 65/147/144 6/144/141
f 65/147/144 67/146/143 6/144/141
f 4/145/142 6/144/141 67/146/143
f 68/154/145 4/149/146 67/148/145
f 69/153/149 4/149/146 68/154/145
f 69/153/149 18/150/147 4/149/146
f 18/150/147 69/153/149 72/152/148
f 18/150/147 72/152/148 32/151/148
f 23/155/150 58/157/152 31/156/151
f 57/158/153 58/157/152 23/155/150
f 73/159/154 57/158/153 23/155/150
f 32/160/155 73/159/154 23/155/150
f 32/160/155 23/155/150 28/161/156
f 4/165/157 3/164/157 75/163/157
f 4/165/157 75/163/157 74/162/157
f 6/166/157 4/165/157 74/162/157
f 74/162/157 76/168/157 6/166/157
f 76/168/157 5/167/157 6/166/157
f 78/170/159 77/169/159 34/83/158
f 79/171/159 78/170/159 34/83/158
f 80/172/159 79/171/159 34/83/158
f 81/173/160 80/172/159 34/83/158
f 35/84/161 81/173/160 34/83/158
f 82/174/163 81/173/163 35/84/162
f 83/175/163 82/174/163 35/84/162
f 84/176/163 83/175/163 35/84/162
f 85/177/164 84/176/163 35/84/162
f 37/86/165 85/177/164 35/84/162
f 87/179/167 86/178/167 49/100/166
f 88/180/167 87/179/167 49/100/166
f 89/181/167 88/180/167 49/100/166
f 90/182/168 89/181/167 49/100/166
f 50/101/169 90/182/168 49/100/166
f 91/183/171 90/182/171 50/101/170
f 92/184/171 91/183/171 50/101/170
f 93/185/171 92/184/171 50/101/170
f 77/169/172 93/185/171 50/101/170
f 34/83/54 77/169/172 50/101/170
f 37/195/173 94/187/173 85/186/173
f 37/195/173 95/188/173 94/187/173
f 95/188/173 37/195/173 38/194/173
f 95/188/173 38/194/173 43/193/177
f 96/189/173 95/188/173 43/193/177
f 96/189/173 43/193/177 5/190/174
f 43/193/177 7/191/175 5/190/174
f 29/192/176 7/191/175 43/193/177
f 20/198/180 30/197/179 44/196/178
f 44/196/178 3/199/181 20/198/180
f 3/199/181 44/196/178 97/200/182
f 97/200/182 44/196/178 98/201/182
f 44/196/178 47/205/182 98/201/182
f 47/205/182 49/204/182 98/201/182
f 99/202/182 98/201/182 49/204/182
f 86/203/182 99/202/182 49/204/182
f 4/4/1 2/2/1 1/1/1
f 1/1/1 3/3/1 4/4/1
f 8/8/4 6/6/3 5/5/2
f 5/5/2 7/7/3 8/8/4
f 12/12/5 10/10/5 9/9/5
f 9/9/5 11/11/5 12/12/5
f 16/16/6 14/14/6 13/13/6
f 13/13/6 15/15/6 16/16/6
f 18/18/9 17/17/8 2/1/7
f 2/1/7 4/3/8 18/18/9
f 3/3/11 1/1/10 19/19/11
f 19/19/11 20/20/12 3/3/11
f 15/23/13 22/1/13 21/21/13
f 21/21/13 16/22/13 15/23/13
f 23/26/15 8/24/14 7/25/15
f 7/25/15 24/27/16 23/26/15
f 13/33/22 26/36/24 25/35/22
f 25/35/22 15/34/23 13/33/22
f 14/42/30 16/45/32 27/44/30
f 27/44/30 28/43/31 14/42/30
f 24/48/34 9/46/33 10/47/34
f 10/47/34 23/49/35 24/48/34
f 13/52/37 11/50/36 9/51/37
f 9/51/37 26/53/38 13/52/37
f 28/56/40 10/54/39 12/55/40
f 12/55/40 14/57/41 28/56/40
f 14/60/42 12/58/42 11/59/42
f 11/59/42 13/61/42 14/60/42
f 30/74/47 20/71/46 25/72/47
f 25/72/47 26/73/48 30/74/47
f 32/80/50 28/81/52 27/78/50
f 27/78/50 18/79/51 32/80/50
f 35/84/53 34/83/54 33/82/53
f 33/82/53 36/85/55 35/84/53
f 37/86/56 35/84/58 36/85/56
f 36/85/56 38/87/57 37/86/56
f 41/90/61 40/89/60 39/88/59
f 39/88/59 42/91/60 41/90/61
f 36/85/55 33/82/63 40/89/62
f 40/89/62 41/90/63 36/85/55
f 38/87/57 36/85/64 41/90/65
f 41/90/65 43/92/64 38/87/57
f 43/92/66 41/90/67 42/91/68
f 42/91/68 29/93/67 43/92/66
f 45/96/71 44/95/70 30/94/69
f 30/94/69 46/97/70 45/96/71
f 48/99/74 47/98/73 44/95/72
f 44/95/72 45/96/73 48/99/74
f 33/82/76 48/99/75 45/96/77
f 45/96/77 40/89/75 33/82/76
f 40/89/62 45/96/78 46/97/79
f 46/97/79 39/88/78 40/89/62
f 50/101/80 49/100/81 47/98/80
f 47/98/80 48/99/74 50/101/80
f 34/83/82 50/101/83 48/99/82
f 48/99/82 33/82/76 34/83/82
f 53/111/93 52/110/92 51/109/91
f 51/109/91 54/112/92 53/111/93
f 56/114/96 55/113/95 52/110/94
f 52/110/94 53/111/95 56/114/96
f 57/115/98 56/114/97 53/111/99
f 53/111/99 58/116/97 57/115/98
f 58/116/100 53/111/101 54/112/102
f 54/112/102 31/117/101 58/116/100
f 61/120/103 60/119/104 59/118/103
f 59/118/103 62/121/105 61/120/103
f 64/123/106 63/122/107 60/119/106
f 60/119/106 61/120/108 64/123/106
f 55/113/110 64/123/109 61/120/110
f 61/120/110 52/110/94 55/113/110
f 52/110/111 61/120/112 62/121/111
f 62/121/111 51/109/91 52/110/111
f 66/125/113 65/124/114 63/122/113
f 63/122/113 64/123/109 66/125/113
f 68/127/115 67/126/116 65/124/115
f 65/124/115 66/125/117 68/127/115
f 69/128/119 68/127/118 66/125/119
f 66/125/119 70/129/120 69/128/119
f 70/129/121 66/125/123 64/123/121
f 64/123/121 55/113/122 70/129/121
f 71/130/125 70/129/124 55/113/122
f 55/113/122 56/114/124 71/130/125
f 72/131/127 69/128/126 70/129/120
f 70/129/120 71/130/126 72/131/127
f 32/132/129 72/131/128 71/130/130
f 71/130/130 73/133/128 32/132/129
f 73/133/131 71/130/132 56/114/96
f 56/114/96 57/115/132 73/133/131
f 100/208/185 87/207/184 88/206/183
f 88/206/183 101/209/184 100/208/185
f 99/211/188 86/210/187 87/207/186
f 87/207/186 100/208/187 99/211/188
f 98/212/190 99/211/189 100/208/185
f 100/208/185 102/213/189 98/212/190
f 102/213/191 100/208/192 101/209/193
f 101/209/193 103/214/192 102/213/191
f 104/215/196 102/213/195 103/214/194
f 103/214/194 105/216/195 104/215/196
f 97/217/199 98/212/198 102/213/197
f 102/213/197 104/215/198 97/217/199
f 3/199/201 97/217/200 104/215/196
f 104/215/196 75/218/200 3/199/201
f 75/218/202 104/215/203 105/216/204
f 105/216/204 74/219/203 75/218/202
f 106/220/207 105/216/206 103/214/205
f 103/214/205 107/221/206 106/220/207
f 74/219/209 105/216/208 106/220/207
f 106/220/207 76/222/208 74/219/209
f 76/222/210 106/220/211 96/224/212
f 96/224/212 5/223/211 76/222/210
f 96/224/212 106/220/213 107/221/214
f 107/221/214 95/225/213 96/224/212
f 109/228/217 108/227/216 83/226/215
f 83/226/215 84/229/216 109/228/217
f 107/221/220 103/214/219 108/227/218
f 108/227/218 109/228/219 107/221/220
f 95/225/222 107/221/221 109/228/217
f 109/228/217 94/230/221 95/225/222
f 94/230/223 109/228/224 84/229/225
f 84/229/225 85/231/224 94/230/223
f 111/234/226 110/233/227 79/232/226
f 79/232/226 80/235/228 111/234/226
f 108/227/229 103/214/230 110/233/229
f 110/233/229 111/234/229 108/227/229
f 108/227/231 111/234/232 82/236/233
f 82/236/233 83/226/232 108/227/231
f 82/236/233 111/234/234 80/235/228
f 80/235/228 81/237/234 82/236/233
f 112/240/235 93/239/235 77/238/235
f 77/238/235 78/241/235 112/240/235
f 113/243/235 92/242/235 93/239/235
f 93/239/235 112/240/235 113/243/235
f 103/214/235 113/243/235 112/240/235
f 112/240/235 110/233/235 103/214/235
f 110/233/235 112/240/235 78/241/235
f 78/241/235 79/232/235 110/233/235
f 114/246/238 89/245/237 90/244/236
f 90/244/236 91/247/237 114/246/238
f 101/209/241 88/206/240 89/245/239
f 89/245/239 114/246/240 101/209/241
f 103/214/243 101/209/242 114/246/238
f 114/246/238 113/243/242 103/214/243
f 113/243/244 114/246/245 91/247/228
f 91/247/228 92/242/245 113/243/244

