# ProBuilder 4.2.3
# https://unity3d.com/unity/features/worldbuilding/probuilder
# 12/13/2020 9:15:58 PM

mtllib ./LowerDress.mtl
o LowerDress

g Cube
v -0.05395508 0 0
v -0.2542114 0 0
v -0.2732391 0.25 0
v -0.08691406 0.25 0
v -0.4544678 0 0
v -0.4595642 0.25 0
v -0.4646606 0.5 0
v -0.2922668 0.5 0
v -0.119873 0.5 0
v -0.8094482 0.5 0
v -0.6370544 0.5 0
v -0.6458893 0.25 0
v -0.8322144 0.25 0
v -0.6547241 0 0
v -0.8549805 0 0
v -0.763916 1 0
v -0.6193848 1 0
v -0.6282196 0.75 0
v -0.7866821 0.75 0
v -0.4748535 1 0
v -0.4697571 0.75 0
v -0.3112946 0.75 0
v -0.152832 0.75 0
v -0.3303223 1 0
v -0.185791 1 0
v -0.9536743 -0.08917236 -0.3217468
v -0.9970093 0.2658081 -0.2924805
v -0.9103394 -0.4441528 -0.3510132
v -0.9656982 -0.8883057 -0.7020264
v -1.075134 -0.4283447 -0.6434937
v -1.18457 0.03161621 -0.5849609
v -1.104584 -0.7675171 -0.9273376
v -1.18811 -0.2025757 -0.8774414
v -1.021057 -1.332458 -0.9772339
v -1.076416 -1.776611 -1.252441
v -1.134033 -1.106689 -1.202148
v -1.19165 -0.4367676 -1.160889
v -0.881958 0.9515381 -0.4680176
v -1.033264 0.4915771 -0.5264893
v -1.089081 0.2687988 -0.7897339
v -0.9900513 0.7401733 -0.7020264
v -1.144897 0.04602051 -1.052979
v -1.098145 0.5288086 -0.9360352
v -0.9099731 0.6207886 -0.2632446
v -0.822937 0.975769 -0.2340088
v -0.8312988 -1.130981 -1.35498
v -0.8553467 -0.4391479 -1.181396
v -0.807373 -1.822754 -1.355591
v -0.5383301 -1.868896 -1.45874
v -0.5285645 -1.155151 -1.412109
v -0.519043 -0.4415283 -1.192871
v 0.1530762 -0.4464111 -1.175537
v -0.1829834 -0.4439697 -1.188721
v -0.2260742 -1.13562 -1.385986
v 0.07641602 -1.116089 -1.26416
v -0.269165 -1.827332 -1.410278
v 0 -1.785767 -1.361816
v -0.5 0.8980103 -0.895752
v -0.5095215 0.228241 -1.044312
v -0.1919556 0.1321869 -1.032166
v -0.2009277 0.7083435 -0.8756104
v 0.1256104 0.03613281 -1.02002
v 0.09814453 0.5186768 -0.8554688
v -0.8272095 0.1371307 -1.048645
v -0.7990723 0.7134094 -0.9158936
v 0.08181763 -0.7745819 -0.9738464
v 0.177124 -0.2098389 -0.8884277
v -0.01348877 -1.339325 -1.059265
v -0.02697754 -0.8928833 -0.7567139
v 0.08709717 -0.433075 -0.6744995
v 0.2011719 0.0267334 -0.5922852
v 9.155273E-05 -0.09153748 -0.3372498
v 0.04064941 0.2633667 -0.2961426
v -0.04046631 -0.4464417 -0.3783569
v -0.09289551 0.9464722 -0.4277344
v 0.05413818 0.4866028 -0.5100098
v -0.04934692 0.6183014 -0.2550049
v -0.1393433 0.9732361 -0.2138672
v 0.08987427 0.2613678 -0.7650146
v 0.002624512 0.7325745 -0.6416016
v -0.3102417 0.9738693 -0.2189026
v -0.4811401 0.9745026 -0.223938
v -0.4874268 0.9490051 -0.447876
v -0.2901611 0.9477386 -0.4378052
v -0.6846924 0.9502716 -0.4579468
v -0.6520386 0.9751358 -0.2289734
v -0.7418823 0.8318405 -0.6869202
v -0.4937134 0.9235077 -0.671814
v -0.2455444 0.8280411 -0.6567078
v -0.2654114 -1.359535 -1.07666
v -0.517334 -1.379745 -1.094055
v -0.4963379 -0.8905945 -0.7293701
v -0.2616577 -0.8917389 -0.743042
v -0.7310181 -0.8894501 -0.7156982
v -0.7691956 -1.356102 -1.035645
v -0.4754028 -0.4452972 -0.3646851
v -0.6928711 -0.444725 -0.3578491
v -0.2579346 -0.4458694 -0.371521

vt -0.05395508 0
vt -0.2542114 0
vt -0.2732391 0.25
vt -0.08691406 0.25
vt -0.4544678 0
vt -0.4595642 0.25
vt -0.4646606 0.5
vt -0.2922668 0.5
vt -0.119873 0.5
vt -0.8094482 0.5
vt -0.6370544 0.5
vt -0.6458893 0.25
vt -0.8322144 0.25
vt -0.6547241 0
vt -0.8549805 0
vt -0.763916 1
vt -0.6193848 1
vt -0.6282196 0.75
vt -0.7866821 0.75
vt -0.4748535 1
vt -0.4697571 0.75
vt -0.3112946 0.75
vt -0.152832 0.75
vt -0.3303223 1
vt -0.185791 1
vt -0.2352814 0.4825724
vt -0.2418988 0.2321482
vt -0.5850585 -0.1074466
vt -0.5696518 0.2463289
vt -0.2485162 -0.0182761
vt -0.6004651 -0.4612221
vt -0.9524139 -0.904168
vt -0.9282181 -0.4470413
vt -0.9040223 0.01008547
vt -1.208367 -0.7849153
vt -1.184904 -0.2222244
vt -1.23183 -1.347606
vt -1.511246 -1.791044
vt -1.479872 -1.122848
vt -1.457142 -0.4545929
vt -0.7041681 0.935487
vt -0.8040951 0.4727862
vt -1.072198 0.2505798
vt -0.9594926 0.723384
vt -1.340301 0.0283734
vt -1.214817 0.511281
vt -0.2220466 0.9834209
vt -0.228664 0.7329967
vt -0.5163796 0.6028914
vt -0.4631073 0.959454
vt 1.22683 -0.63056
vt 1.170511 -1.297383
vt 0.8726257 -1.350252
vt 0.8913174 -0.6384163
vt 1.114469 -1.96582
vt 0.84873 -2.031127
vt 0.5829907 -2.096434
vt 0.5717939 -1.385905
vt 0.5555264 -0.644659
vt -0.1168078 -0.6500654
vt 0.2194984 -0.648169
vt 0.2686428 -1.363686
vt -0.03745519 -1.32437
vt 0.3124611 -2.048362
vt 0.04193151 -2.00029
vt 0.5273439 0.7262844
vt 0.5414352 0.04081272
vt 0.2236458 -0.0532726
vt 0.2277933 0.5416238
vt -0.0941435 -0.1473579
vt -0.07175737 0.3569632
vt 1.126445 0.3591228
vt 1.176777 -0.1365255
vt 0.8591059 -0.04785639
vt 0.8268945 0.5427036
vt 1.181457 -0.4469436
vt 1.251993 -1.117129
vt 0.9692962 -0.7752605
vt 0.9058113 -0.2099105
vt 1.331412 -1.787325
vt 1.032781 -1.340611
vt 0.7341503 -0.8938966
vt 0.677742 -0.4333818
vt 0.6213337 0.02713309
vt 0.3297394 -0.09192816
vt 0.2980724 0.2632381
vt 0.3614064 -0.4470944
vt -0.01133756 -0.0002922244
vt -0.01826322 0.2495254
vt -0.02518888 0.4993431
vt 0.3986644 0.9454566
vt 0.509999 0.4862949
vt 0.2389423 0.6177278
vt 0.1798121 0.9722175
vt -0.03211454 0.7491608
vt -0.0390402 0.9989784
vt 0.8569922 0.5182046
vt 1.023641 0.0356252
vt 0.7668198 0.26096
vt 0.6278283 0.7318306
vt 0.1411556 0.2459613
vt 0.285544 0.2475301
vt 0.2666448 0.02866166
vt 0.09594347 0.03153514
vt 0.4299324 0.2490989
vt 0.4373462 0.02578819
vt 0.44476 -0.1975226
vt 0.2477457 -0.1902068
vt 0.05073133 -0.182891
vt 0.8387887 -0.2121541
vt 0.6417744 -0.2048383
vt 0.6080475 0.02291471
vt 0.7787489 0.02004123
vt 0.5743207 0.2506678
vt 0.7187091 0.2522366
vt 1.073553 -0.7667801
vt 0.7665701 -0.705462
vt 0.7041722 -0.4551502
vt 0.9561706 -0.4894671
vt 0.4595876 -0.6441441
vt 0.4521738 -0.4208333
vt 0.2084938 -0.4321667
vt -0.03518614 -0.4435001
vt 0.169242 -0.6741267
vt -0.1211036 -0.7041093
vt 0.08982378 -2.243954
vt -0.1755586 -2.317192
vt -0.1938182 -1.743274
vt 0.05640847 -1.706549
vt -0.440941 -2.390429
vt -0.4440448 -1.779999
vt -0.4471487 -1.169568
vt -0.2120778 -1.169357
vt 0.02299315 -1.169145
vt -0.9172904 -1.169992
vt -0.6822196 -1.16978
vt -0.6992106 -1.735862
vt -0.9543765 -1.691725
vt -0.7162017 -2.301944
vt -0.9914624 -2.213459
vt -0.4534781 -0.0182629
vt -0.4503134 -0.5939156
vt -0.6677589 -0.5980452
vt -0.6532984 -0.02631025
vt -0.8852046 -0.6021748
vt -0.8531186 -0.0343576
vt -0.05383758 -0.002168198
vt -0.01542222 -0.5856565
vt -0.2328678 -0.5897861
vt -0.2536578 -0.01021555

vn 0 0 1
vn -0.8666778 0.07892353 0.4925858
vn -0.8660038 -0.03313167 0.4861497
vn -0.8653299 -0.1451869 0.4797135
vn -0.9589099 0.08732261 0.2699382
vn -0.9468824 -0.02683261 0.297887
vn -0.9348548 -0.1409878 0.3258358
vn -0.8562154 -0.2028396 0.471462
vn -0.8471009 -0.2604924 0.4632105
vn -0.781905 -0.2582388 0.5673952
vn -0.7788901 -0.201785 0.5906571
vn -0.7758752 -0.1453311 0.613919
vn -0.9440734 -0.2517216 0.2129825
vn -0.9425842 -0.2084605 0.254012
vn -0.9410949 -0.1651993 0.2950416
vn -0.8780208 -0.2600369 0.4018213
vn -0.8774818 -0.214708 0.4257897
vn -0.8769427 -0.1693791 0.449758
vn -0.9326073 -0.1361396 0.331798
vn -0.927331 -0.1066855 0.3587137
vn -0.9378836 -0.1655937 0.3048823
vn -0.9697587 -0.09719333 0.2238783
vn -0.9735481 -0.1271151 0.1829163
vn -0.9773374 -0.1570369 0.1419544
vn -0.9416125 0.2874624 0.1753034
vn -0.9604689 0.2429 0.1075521
vn -0.9793254 0.1983377 0.03980074
vn -0.9448913 0.3197572 -0.07025518
vn -0.9506364 0.2766623 -0.1228497
vn -0.9563815 0.2335676 -0.1754442
vn -0.9846966 0.156271 -0.02109643
vn -0.9900679 0.1142044 -0.08199361
vn -0.9853081 0.05636591 0.1612169
vn -0.9631628 0.09839045 0.2345319
vn -0.9410175 0.140415 0.3078469
vn -0.9679864 0.08814916 0.235015
vn -0.9446931 0.1432711 0.2845873
vn -0.9213998 0.198393 0.3341595
vn -0.9175568 0.08355681 0.3887259
vn -0.9025713 0.1331786 0.4057722
vn -0.8875858 0.1828004 0.4228185
vn -0.9073998 0.2222504 0.3550078
vn -0.8933998 0.2461077 0.375856
vn -0.9168143 0.2634426 0.3000827
vn -0.9343663 0.2394516 0.2589312
vn -0.9519184 0.2154607 0.2177797
vn -0.0603746 0.05618653 -0.9965932
vn -0.2440797 0.1310694 -0.9383488
vn -0.4277848 0.2059523 -0.8801044
vn -0.4486616 0.0284712 -0.8932481
vn -0.4041796 0.008426903 -0.9131224
vn -0.3596976 -0.01161739 -0.9329966
vn -0.2666009 0.03015235 -0.9589918
vn -0.3473392 0.06586608 -0.9354236
vn -0.1858626 -0.005561367 -0.98256
vn -0.1547904 0.2920192 -0.9438033
vn -0.09308122 0.2671172 -0.9567593
vn -0.03137207 0.2422152 -0.9697152
vn 0.03980269 0.1266098 -0.9911537
vn 0.1947885 0.1816707 -0.9487921
vn 0.3497742 0.2367316 -0.9064305
vn 0.01386477 0.2734475 -0.961787
vn 0.0386985 0.2828759 -0.9579999
vn 0.06353223 0.2923042 -0.9542127
vn 0.1258356 0.04586421 -0.9899611
vn 0.1675758 0.06198854 -0.9839085
vn 0.08409547 0.02973988 -0.9960138
vn 0.173591 0.02376142 -0.9845312
vn 0.2701858 0.05844495 -0.9550828
vn 0.3667807 0.09312847 -0.9256344
vn 0.1974236 0.2096065 -0.9576477
vn 0.156676 0.2358674 -0.9578462
vn 0.1159284 0.2621283 -0.9580446
vn 0.1018965 0.2140363 -0.9714966
vn 0.05785945 0.2382136 -0.9681796
vn 0.01382243 0.2623909 -0.9648627
vn 0.07772677 0.2853377 -0.9542161
vn 0.03952517 0.3085471 -0.9503875
vn 0.1345895 0.3266743 -0.935505
vn 0.1809247 0.2926614 -0.9371814
vn 0.2272599 0.2586485 -0.9388577
vn -0.06528715 0.2337309 -0.9700375
vn -0.05565019 0.2401396 -0.9691419
vn -0.07492411 0.2273222 -0.9709331
vn -0.05473646 0.2248347 -0.972852
vn -0.05775968 0.223092 -0.9730847
vn -0.05171324 0.2265774 -0.9726194
vn -0.03162234 0.2258344 -0.9736523
vn -0.040271 0.2213911 -0.9743045
vn -0.04891966 0.2169477 -0.9749567
vn -0.06002582 0.2217706 -0.973202
vn -0.06833841 0.2169638 -0.9737847
vn 0.9824058 -0.1527572 0.09853885
vn 0.9822387 -0.1303067 0.135009
vn 0.982573 -0.1752077 0.06206872
vn 0.95654 -0.1700899 0.2343996
vn 0.9546577 -0.1467103 0.2590461
vn 0.9584222 -0.1934696 0.2097531
vn 0.9152009 -0.2067696 0.3459099
vn 0.9129289 -0.2434918 0.324764
vn 0.910657 -0.280214 0.3036181
vn 0.9583045 -0.2266839 0.166734
vn 0.9565638 -0.2606581 0.1305491
vn 0.9600453 -0.1927098 0.2029189
vn 0.8109815 -0.2249058 0.5351124
vn 0.8122433 -0.2918193 0.5050766
vn 0.8097197 -0.1579923 0.5651482
vn 0.8977344 -0.2170445 0.3769028
vn 0.884842 -0.2853684 0.3682655
vn 0.9106268 -0.1487205 0.38554
vn 0.9722906 -0.1333517 0.1920111
vn 0.978124 -0.001815371 0.1572439
vn 0.9839573 0.1297209 0.1224767
vn 0.9102184 -0.01438744 0.3914273
vn 0.9098099 0.1199456 0.3973147
vn 0.9464853 0.238291 0.2141038
vn 0.9347566 0.2545186 0.2478919
vn 0.958214 0.2220633 0.1803157
vn 0.9299992 0.2228198 0.2912366
vn 0.9208276 0.2393304 0.3078921
vn 0.9391708 0.2063092 0.2745812
vn 0.9189707 0.193168 0.3437718
vn 0.9295461 0.1585549 0.3306389
vn 0.9401214 0.1239418 0.3175061
vn 0.9557666 0.1672508 0.2348585
vn 0.9723625 0.1281923 0.1951357
vn 0.9654013 0.04985654 0.2300908
vn 0.9917491 0.01295811 0.1275372
vn 0.9390534 0.08675496 0.3326444
vn 0.9798937 0.1506658 -0.1019698
vn 0.978371 0.1117829 -0.1740537
vn 0.9814164 0.1895488 -0.02988584
vn 0.9316563 0.243207 -0.2699388
vn 0.9318739 0.2847003 -0.2137148
vn 0.9320914 0.3261936 -0.1574908
vn 0.9654613 0.2334435 0.05840825
vn 0.9495061 0.2773383 0.1467023
vn 0.003644986 0.9926893 -0.1205708
vn 0 0.9929506 -0.1185298
vn 0.007289971 0.9924279 -0.1226119
vn 0.003576336 0.9932913 -0.1155041
vn 0 0.9935804 -0.1131284
vn 0.007152671 0.9930021 -0.1178798
vn 0.009661566 0.9932352 -0.1156686
vn 0.01217046 0.9934683 -0.1134573
vn 0.00986317 0.9927585 -0.1196775
vn 0.01257367 0.9925148 -0.1214752
vn 0.01179161 0.9943035 -0.1059314
vn 0.009342101 0.9941648 -0.1074278
vn 0.006892595 0.9940262 -0.1089242
vn 0.01197813 0.9938996 -0.1096357
vn 0.009499211 0.9937167 -0.1114779
vn 0.007020296 0.9935337 -0.1133202
vn 0.003446297 0.9938033 -0.1110263
vn 0 0.9941558 -0.1079553
vn 0.003384665 0.9943192 -0.1063193
vn 0.00676933 0.9944826 -0.1046832
vn -0.4357622 0.7587973 -0.4840846
vn -0.3681158 0.8172647 -0.4309945
vn -0.3004694 0.8757319 -0.3779044
vn -0.4857383 0.8199835 -0.3027959
vn -0.4126986 0.8777593 -0.19989
vn -0.3396589 0.9355351 -0.09698416
vn -0.1441495 0.9346001 -0.2456809
vn 0.02941993 0.8848212 -0.465001
vn -0.1103443 0.82899 -0.5239072
vn -0.2501085 0.7731587 -0.5828133
vn 0.174902 0.8085384 -0.5347987
vn 0.02988923 0.8795559 -0.4748558
vn 0.3199147 0.7375208 -0.5947417
vn 0.1815187 0.9216706 -0.2533302
vn 0.350867 0.8498728 -0.3932031
vn 0.3627481 0.9247056 -0.1154698
vn 0.4423869 0.8566775 -0.220155
vn 0.5220256 0.7886495 -0.3248402
vn 0.4194029 0.7831594 -0.445911
vn 0.4879388 0.716446 -0.4986189
vn -0.03451877 -0.5703033 0.8203204
vn -0.05691671 -0.5793923 0.813059
vn -0.01212083 -0.5612142 0.8275818
vn -0.03101618 -0.5880018 0.8079237
vn -0.05239002 -0.5954456 0.8016857
vn -0.009642349 -0.5805581 0.8141618
vn -0.00743318 -0.5974911 0.8018411
vn 0.01855559 -0.588894 0.8075135
vn 0.04454436 -0.5802969 0.8131859
vn 0.01792144 -0.57002 0.8208777
vn 0.04548523 -0.5594818 0.8275937
vn 0.04672876 -0.5303351 0.8464993
vn 0.0908746 -0.5490616 0.8292626
vn 0.1350204 -0.5677881 0.8120259
vn 0.04513226 -0.5674088 0.8221985
vn 0.08647225 -0.5818698 0.8073484
vn 0.1278122 -0.5963309 0.7924983
vn 0.1666527 -0.5795445 0.7968602
vn 0.1982849 -0.591301 0.7816944
vn 0.2092903 -0.5645423 0.7984294
vn 0.1761929 -0.5493283 0.8158218
vn 0.1430954 -0.5341143 0.833214
vn 0 -0.633603 0.7736583
vn 0.01140083 -0.6307646 0.7757986
vn 0.02280167 -0.6279262 0.7779388
vn 0.0226283 -0.6340773 0.7729385
vn 0.032404 -0.6313079 0.7747862
vn 0.04217969 -0.6285385 0.7766339
vn 0.03264008 -0.6253315 0.7796081
vn 0.04247851 -0.6227368 0.7812775
vn 0.02297623 -0.6216402 0.7829658
vn 0.01148811 -0.6242715 0.7810316
vn 0 -0.6269028 0.7790975
vn 0.01114266 -0.6430663 0.7656384
vn 0.02228532 -0.6459856 0.7630242
vn 0 -0.6401469 0.7682526
vn 0.03187554 -0.6426782 0.7654063
vn 0.0412949 -0.6452603 0.7628459
vn 0.02245618 -0.6400961 0.7679666
vn 0.04158783 -0.639798 0.7674171
vn 0.03210807 -0.6369377 0.7701778
vn 0.01131415 -0.6371121 0.7705956

usemtl DressmakerSkirt
f 4/4/1 3/3/1 2/2/1 1/1/1
f 3/3/1 6/6/1 5/5/1 2/2/1
f 8/8/1 7/7/1 6/6/1 3/3/1
f 9/9/1 8/8/1 3/3/1 4/4/1
f 10/10/1 13/13/1 12/12/1 11/11/1
f 12/12/1 6/6/1 7/7/1 11/11/1
f 14/14/1 5/5/1 6/6/1 12/12/1
f 13/13/1 15/15/1 14/14/1 12/12/1
f 16/16/1 19/19/1 18/18/1 17/17/1
f 18/18/1 21/21/1 20/20/1 17/17/1
f 11/11/1 7/7/1 21/21/1 18/18/1
f 19/19/1 10/10/1 11/11/1 18/18/1
f 23/23/1 22/22/1 8/8/1 9/9/1
f 22/22/1 21/21/1 7/7/1 8/8/1
f 24/24/1 20/20/1 21/21/1 22/22/1
f 25/25/1 24/24/1 22/22/1 23/23/1
f 27/29/3 26/28/4 13/27/3 10/26/2
f 26/28/6 28/31/7 15/30/6 13/27/5
f 26/28/4 30/33/8 29/32/9 28/31/8
f 27/29/12 31/34/11 30/33/10 26/28/11
f 33/36/14 32/35/15 30/33/14 31/34/13
f 32/35/17 34/37/18 29/32/17 30/33/16
f 36/39/19 35/38/20 34/37/19 32/35/21
f 37/40/23 36/39/22 32/35/23 33/36/24
f 41/44/26 40/43/27 39/42/26 38/41/25
f 40/43/29 33/36/30 31/34/29 39/42/28
f 42/45/31 37/40/32 33/36/31 40/43/27
f 43/46/34 42/45/33 40/43/34 41/44/35
f 45/50/37 44/49/38 19/48/37 16/47/36
f 44/49/40 27/29/41 10/26/40 19/48/39
f 39/42/42 31/34/43 27/29/42 44/49/38
f 38/41/45 39/42/44 44/49/45 45/50/46
f 47/54/48 46/53/49 36/52/48 37/51/47
f 46/53/51 48/56/52 35/55/51 36/52/50
f 50/58/53 49/57/54 48/56/53 46/53/55
f 51/59/57 50/58/56 46/53/57 47/54/58
f 52/60/59 55/63/60 54/62/61 53/61/60
f 53/61/62 54/62/63 50/58/64 51/59/63
f 54/62/67 56/64/65 49/57/66 50/58/65
f 55/63/70 57/65/69 56/64/68 54/62/69
f 61/69/72 60/68/73 59/67/72 58/66/71
f 60/68/75 53/61/76 51/59/75 59/67/74
f 62/70/77 52/60/78 53/61/77 60/68/73
f 63/71/80 62/70/79 60/68/80 61/69/81
f 65/75/84 64/74/82 42/73/83 43/72/82
f 64/74/87 47/54/85 37/51/86 42/73/85
f 59/67/90 51/59/89 47/54/88 64/74/89
f 58/66/92 59/67/91 64/74/87 65/75/91
f 67/79/95 66/78/93 55/77/94 52/76/93
f 66/78/98 68/81/96 57/80/97 55/77/96
f 70/83/101 69/82/100 68/81/99 66/78/100
f 71/84/103 70/83/102 66/78/104 67/79/102
f 73/86/107 72/85/105 70/83/106 71/84/105
f 72/85/110 74/87/108 69/82/109 70/83/108
f 4/89/113 1/88/112 74/87/111 72/85/112
f 9/90/115 4/89/114 72/85/110 73/86/114
f 78/94/118 77/93/116 76/92/117 75/91/116
f 77/93/121 73/86/119 71/84/120 76/92/119
f 23/95/124 9/90/123 73/86/122 77/93/123
f 25/96/126 23/95/125 77/93/121 78/94/125
f 80/100/129 79/99/127 62/98/128 63/97/127
f 79/99/132 67/79/130 52/76/131 62/98/130
f 76/92/135 71/84/134 67/79/133 79/99/134
f 75/91/137 76/92/136 79/99/132 80/100/136
f 25/101/138 78/104/140 81/103/138 24/102/139
f 81/103/143 82/106/141 20/105/142 24/102/141
f 82/106/144 81/103/143 84/108/144 83/107/145
f 78/104/146 75/109/147 84/108/146 81/103/143
f 45/113/149 86/112/150 85/111/149 38/110/148
f 86/112/152 82/106/153 83/107/152 85/111/151
f 17/114/154 20/105/142 82/106/154 86/112/150
f 16/115/156 17/114/155 86/112/156 45/113/157
f 41/119/159 87/118/160 65/117/159 43/116/158
f 87/118/162 88/121/163 58/120/162 65/117/161
f 85/111/164 83/107/145 88/121/164 87/118/160
f 38/110/166 85/111/165 87/118/166 41/119/167
f 75/109/168 80/123/170 89/122/168 84/108/169
f 89/122/172 88/121/171 83/107/145 84/108/171
f 61/124/175 58/120/174 88/121/173 89/122/174
f 80/123/176 63/125/177 61/124/176 89/122/172
f 90/128/178 56/127/179 57/126/178 68/129/180
f 91/131/181 49/130/182 56/127/181 90/128/183
f 91/131/184 90/128/185 93/133/186 92/132/185
f 68/129/187 69/134/188 93/133/187 90/128/183
f 94/136/190 29/135/189 34/138/190 95/137/191
f 94/136/192 95/137/193 91/131/194 92/132/193
f 91/131/195 95/137/191 48/139/195 49/130/196
f 95/137/198 34/138/199 35/140/198 48/139/197
f 14/144/201 97/143/202 96/142/201 5/141/200
f 97/143/204 94/136/205 92/132/204 96/142/203
f 28/145/206 29/135/207 94/136/206 97/143/202
f 15/146/209 28/145/208 97/143/209 14/144/210
f 1/147/211 2/150/213 98/149/211 74/148/212
f 74/148/214 98/149/216 93/133/214 69/134/215
f 96/142/203 92/132/218 93/133/217 98/149/218
f 96/142/203 98/149/219 2/150/213 5/141/219

