# ProBuilder 4.2.3
# https://unity3d.com/unity/features/worldbuilding/probuilder
# 12/13/2020 9:14:45 PM

mtllib ./Cylinder.mtl
o Cylinder

g Cylinder
v -0.1149628 0.5514772 0.02568036
v 0.01950622 0.9756411 -0.1307892
v 0.06427157 0.810284 0.1950871
v 0.4167662 -0.5206807 0.4073044
v 0.2627031 2.375064 -0.2126689
v 0.305349 2.239478 0.1081628
v 0.3310902 2.288177 0.5412574
v 0.2051759 0.6441144 0.5208165
v 0.4909163 -0.6848998 0.6112174
v 0.5457668 0.5629681 0.6543938
v 0.6707206 -0.776602 0.6932873
v 0.6722574 2.236017 0.6745711
v 0.9999776 2.182289 0.8077652
v 0.8863577 0.4818217 0.7879711
v 0.8501407 -0.8381696 0.6777006
v 1.226756 0.5629681 0.6543938
v 1.029561 -0.776602 0.6932873
v 1.327314 2.236017 0.6745711
v 1.493671 2.313033 0.4647839
v 1.567155 0.6441144 0.5208165
v 1.208981 -0.6848998 0.6112174
v 1.708251 0.7834823 0.1919803
v 1.626232 -0.6744716 0.2756484
v 1.51826 2.239478 0.1081628
v 1.580884 2.366447 -0.2133262
v 1.736868 0.9222656 -0.137
v 1.668481 -0.2477908 -0.03956821
v 1.765113 1.117336 -0.4593158
v 1.739941 0.01461185 -0.3627829
v 1.51826 2.494261 -0.5349454
v 1.459862 2.622859 -0.8565047
v 1.680878 1.311821 -0.7817758
v 1.653113 -0.0003056268 -0.7071524
v 1.340433 1.338262 -0.9215312
v 1.299652 -0.0008669948 -0.8536277
v 1.327314 2.676525 -0.989509
v 0.9999776 2.729407 -1.122573
v 0.9999888 1.364703 -1.061287
v 1 0 -1
v 0.6594481 1.338262 -0.9215312
v 0.6464467 0 -0.8535534
v 0.6724495 2.676525 -0.989509
v 0.3310902 2.622859 -0.8565047
v 0.3189073 1.311821 -0.7817759
v 0.2350409 0.002038062 -0.7143633
v 0.1209343 1.516956 -0.4278661
v -0.02506066 1.344124 -0.2666147
v 0.3211011 2.502878 -0.534288
v 0.5328065 -0.8264122 0.2580359
v 0.2794284 -0.6895714 0.155978
v 1.000183 -0.8269778 -0.09578977
v 0.3864274 -0.6214339 -0.07196374
v 0.8864601 -0.9353693 0.3919665
v 0.6127836 -0.8988618 0.4652649
v 1.239922 -0.8264122 0.2580359
v 1.084194 -0.8988618 0.4652649
v 1.386493 -0.6750373 -0.07817728
v 1.417549 -0.725307 0.1518357
v 1.353645 -0.4134889 -0.4014482
v 1.493364 -0.4500248 -0.2878205
v 1.000091 -0.4134889 -0.5478949
v 1.235763 -0.2756593 -0.6009655
v 0.6465379 -0.4134889 -0.4014483
v 0.7643586 -0.2756593 -0.6009656
v 0.3552494 -0.4142892 -0.2836781
v 0.5370311 2.184399 -0.1065735
v 0.4729945 2.160958 0.07220817
v 1 2 0
v 0.6724607 2.057038 0.2148857
v 0.781633 2.040493 0.3753303
v 0.9999888 2.003702 0.3481098
v 1.218209 2.040493 0.3753303
v 1.327325 2.057038 0.2148857
v 1.526848 2.160958 0.07220817
v 1.462946 2.184399 -0.1065735
v 1.526848 2.330813 -0.3565306
v 1.327325 2.311821 -0.4282224
v 1.218209 2.451016 -0.6596727
v 0.9999888 2.364703 -0.5612866
v 0.781633 2.451016 -0.6596727
v 0.6724607 2.311821 -0.4282224
v 0.4729945 2.330813 -0.3565306

vt -0.02476624 0.5516095
vt -0.1106357 0.975557
vt 0.2040835 0.8103102
vt 0.5442969 -0.5209202
vt -0.08327186 2.374686
vt 0.2259788 2.239209
vt 0.6301259 2.28809
vt 0.5588865 0.6441503
vt 0.7605294 -0.6851184
vt 0.6411991 -0.6769609
vt 0.3415956 0.6517209
vt 0.705874 0.571175
vt 0.8367129 -0.768146
vt 0.4682387 2.29527
vt 0.8329976 2.243698
vt 1.184804 2.190623
vt 1.070152 0.490629
vt 1.004768 -0.830829
vt 0.4136053 -0.8268249
vt 0.3916637 0.4943631
vt 0.7540758 0.5760513
vt 0.562834 -0.7641289
vt 0.4813415 2.195538
vt 0.8321512 2.249741
vt 1.079499 2.325601
vt 1.116488 0.6577395
vt 0.7595254 -0.6722587
vt -0.3791227 -0.7388242
vt -0.2245659 0.5749548
vt 0.1245698 0.7109135
vt 0.02727848 -0.7430216
vt -0.1829607 2.245865
vt 0.172121 2.174104
vt 0.4996424 2.300852
vt 0.4532183 0.8509248
vt 0.3448969 -0.3160335
vt -0.1440445 -0.3631554
vt -0.05471901 0.7985641
vt 0.26254 0.9887304
vt 0.1693584 -0.1088231
vt 0.03828819 2.249457
vt 0.3648417 2.378836
vt 0.6908712 2.508704
vt 0.5923044 1.18611
vt 0.5211845 -0.1203248
vt -1.137383 0.06004179
vt -1.127416 1.374359
vt -0.7609643 1.399308
vt -0.7562822 0.0580098
vt -0.8969286 2.682598
vt -0.717844 2.73866
vt -0.3661093 2.790031
vt -0.3945127 1.424256
vt -0.4229161 0.05848122
vt -1.295545 0.02325658
vt -1.317857 1.389153
vt -0.9498055 1.362483
vt -0.9129371 0.02294454
vt -1.34017 2.755049
vt -0.986674 2.702022
vt -0.6203188 2.64842
vt -0.5817537 1.335813
vt -0.4790941 0.02581022
vt -0.733982 0.04385607
vt -0.8093001 1.329741
vt -0.4376693 1.486557
vt -0.2628681 1.286365
vt -0.8848637 2.598414
vt -0.5632222 2.487967
vt -0.2374245 2.357613
vt -0.1320722 0.9448841
vt 0.03683911 0.5045298
vt 0.8165503 0.6429543
vt 0.9396967 0.3186003
vt 0.6577057 0.2330289
vt 0.6540997 0.4264646
vt 1.297744 -0.09568296
vt 0.6957336 -0.01689846
vt -0.4429525 -0.05645298
vt 1.061743 0.5519847
vt 1.125446 0.2555467
vt 0.8533632 0.3177196
vt 0.8721233 0.5682936
vt 1.201587 -0.1938814
vt 0.7553923 0.124092
vt 0.6731328 0.4948505
vt 0.8422397 0.3297911
vt 0.8150379 -0.04714112
vt 0.643366 0.152817
vt 0.6412132 0.4062059
vt 0.5943917 -0.3683649
vt 0.4472068 0.0921841
vt 0.4520373 0.394399
vt 1.436 0.2056853
vt 1.008523 0.2461351
vt 1.017268 0.4833473
vt 1.229104 0.6121408
vt 0.5935948 0.2257601
vt 0.8141762 0.5917658
vt 0.8414762 0.892109
vt -0.1282359 1.176384
vt -0.2628959 0.5980557
vt -0.4278864 0.6178414
vt -0.4741433 1.13484
vt -0.3727931 -0.01198226
vt -0.5653303 0.3227153
vt -0.7287681 0.7980327
vt 0.9211125 -0.5009103
vt 0.7602268 0.09020875
vt 1.030964 0.02704198
vt 1.196788 -0.3133741
vt 0.599341 0.6813278
vt 1.085889 0.291018
vt 1.522584 -0.1129051
vt 0.220183 -0.5973321
vt 0.7489401 -0.1971243
vt 0.8125436 -0.4591176
vt 0.6074985 -0.7932435
vt 1.222634 0.2091344
vt 1.081192 -0.3869848
vt 0.9397504 -0.983104
vt -0.4312425 -0.178169
vt 0.6878801 0.0774165
vt 0.5353342 -0.178363
vt -0.8505093 -0.7958903
vt 1.297398 -0.06240722
vt 0.7638201 -0.3761646
vt 0.1835049 -0.6771687
vt 0.7212839 -0.5187747
vt 0.3932532 -0.4050958
vt 0.4423182 -0.2215522
vt 0.6273993 -0.1864593
vt -0.1047319 -0.302045
vt 0.217858 -0.07825504
vt 0.6235767 0.2352263
vt 0.2905715 1.141806
vt -0.1000455 0.7919372
vt -0.2096794 0.9499513
vt -0.05216007 1.28114
vt -0.4309415 0.5938115
vt -0.4299443 0.9298955
vt -0.3823483 1.418981
vt -1.603288 1.200454
vt -1.55023 0.7137688
vt -1.769526 0.733347
vt -1.931803 1.060227
vt -1.549141 0.3743483
vt -1.878629 0.5734258
vt -2.113532 0.8617666
vt 0.623865 2.710486
vt 0.3574165 2.422831
vt 0.2371939 2.634542
vt 0.2720066 2.689744
vt 0.1083348 2.195371
vt 0.05254178 2.626667
vt -0.04080595 2.849573
vt -2.75249 -0.4894294
vt -2.543497 -0.3682777
vt -2.688413 -0.6239434
vt -2.790359 -0.8390441
vt -2.074683 -0.3397572
vt -2.526463 -0.7375162
vt -2.831912 -1.187702
vt -1.806714 -2.004375
vt -1.632659 -1.487486
vt -1.543724 -1.764812
vt -1.682806 -2.154947
vt -1.265559 -0.9845401
vt -1.315706 -1.652002
vt -1.365853 -2.319463
vt -0.721808 -2.472252
vt -0.7583174 -1.803882
vt -0.5324199 -1.921267
vt -0.4012164 -2.314144
vt -0.7948268 -1.135512
vt -0.4377258 -1.645774
vt -0.06694154 -2.154912
vt 0.7022547 -1.792168
vt 0.2675694 -1.337086
vt 0.459018 -1.247891
vt 0.6653702 -1.450868
vt -0.1546475 -0.8796781
vt 0.3436337 -0.9745896
vt 0.6701672 -1.09993

vn -0.7555268 0.1704397 0.5389716
vn -0.8641053 0.3908968 0.3170514
vn -0.6469482 -0.05001732 0.7608918
vn -0.9609807 0.1772254 0.212199
vn -0.9625042 0.1791837 0.2036636
vn -0.9594571 0.175267 0.2207343
vn -0.9848994 0.1685412 0.03958641
vn -0.9442651 0.1162411 0.2315496
vn -0.9036308 0.06394101 0.4235127
vn -0.9470622 -0.1961932 0.2478663
vn -0.9617466 -0.1935935 0.1938172
vn -0.9323778 -0.198793 0.3019154
vn -0.3944991 -0.01443439 0.9183415
vn -0.3683655 -0.01597071 0.9295439
vn -0.4206327 -0.01289808 0.9071392
vn -0.3617562 0.01611268 0.9321335
vn -0.3740553 0.01709759 0.9272488
vn -0.3681895 0.01522929 0.9296027
vn -0.3623236 0.01336099 0.9319566
vn -0.1546146 -0.04592877 0.9625556
vn 0.05736078 -0.08467457 0.9947563
vn -0.36659 -0.00718297 0.9303549
vn -0.05846289 -0.08151338 0.9949561
vn 0.156198 -0.05457747 0.961617
vn 0.3708588 -0.02764156 0.9282778
vn 0.3724216 -0.03567908 0.9273776
vn 0.3769459 -0.03487384 0.9255654
vn 0.3814701 -0.0340686 0.9237531
vn 0.5721911 0.01085307 0.7801921
vn 0.7723728 0.05525278 0.6327617
vn 0.3720094 -0.03354663 0.9276226
vn 0.3727511 -0.03739022 0.9271778
vn 0.4020722 -0.03736179 0.9142845
vn 0.4313932 -0.03733335 0.9013913
vn 0.624253 -0.1156848 0.7726094
vn 0.7736758 -0.07280654 0.5780032
vn 0.9230986 -0.02992829 0.383397
vn 0.9091609 0.05389545 0.4129429
vn 0.949804 0.09275339 0.2270438
vn 0.9904472 0.1316113 0.04114467
vn 0.972778 0.1263811 0.1883913
vn 0.9651991 0.1166208 0.2340735
vn 0.9803569 0.1361414 0.142709
vn 0.9965237 -0.05288402 0.06437325
vn 0.9965925 -0.0526817 0.06346031
vn 0.9966613 -0.05247938 0.06254737
vn 0.9822224 -0.04217651 0.1829217
vn 0.9895357 -0.02906469 0.1303114
vn 0.9968491 -0.01595287 0.07770105
vn 0.9812783 0.1141835 0.1550969
vn 0.9796065 0.1413632 0.01582919
vn 0.9779347 0.1685428 -0.1234386
vn 0.9773041 0.1624635 -0.1344059
vn 0.9806405 0.158786 -0.114591
vn 0.9739677 0.1661409 -0.1542207
vn 0.9614104 -0.03585713 -0.2727716
vn 0.9652976 -0.03960411 -0.257631
vn 0.9691848 -0.04335108 -0.2424903
vn 0.3822126 -0.06052908 -0.9220899
vn 0.3787204 -0.05943266 -0.9235924
vn 0.3752283 -0.05833623 -0.925095
vn 0.3804908 0.01143517 -0.924714
vn 0.5412905 -0.008911091 -0.8181005
vn 0.7020901 -0.02925735 -0.7114869
vn 0.373494 -0.0424913 -0.9266528
vn 0.3704695 -0.04166784 -0.9279096
vn 0.3765186 -0.04331476 -0.9253959
vn 0.376664 -0.04155587 -0.9254174
vn 0.4073383 -0.05019083 -0.9112297
vn 0.4380126 -0.05882578 -0.8970421
vn -0.3794495 -0.04236729 -0.9242363
vn -0.3765724 -0.04156371 -0.9254543
vn -0.3823267 -0.04317088 -0.9230182
vn -0.3733528 -0.04251406 -0.9267084
vn -0.3702811 -0.04167728 -0.9279844
vn -0.3764246 -0.04335085 -0.9254324
vn -0.3566922 -0.04393652 -0.9331883
vn -0.3663101 -0.04659363 -0.9292637
vn -0.375928 -0.04925074 -0.9253391
vn -0.3484525 -0.03578122 -0.9361337
vn -0.3204806 -0.02821158 -0.9468349
vn -0.8183877 0.04557146 -0.5669181
vn -0.8649439 0.02959756 -0.5009951
vn -0.7718317 0.06154536 -0.6328412
vn -0.9187818 0.0600904 -0.2810462
vn -0.9995748 0.007685389 -0.02812631
vn -0.8379886 0.1124954 -0.5339662
vn -0.9769053 0.1872203 -0.1029788
vn -0.9810197 0.1784114 -0.06514233
vn -0.9851342 0.1696025 -0.02730591
vn 0.2362012 0.3502722 0.8727555
vn 0.0006037717 0.3459237 0.9382625
vn 0.4717986 0.3546206 0.8072486
vn -0.7195872 -0.3456368 0.3378412
vn -0.5374882 -0.8028545 0.2579364
vn -0.9016863 0.1115809 0.4177459
vn -0.3048397 -0.8637363 -0.4012885
vn -0.8211216 -0.3111771 -0.4784643
vn -0.8104768 -0.2528699 0.04467547
vn -0.799832 -0.1945627 0.5678152
vn -0.1409684 -0.8880978 0.4112323
vn -0.04148002 -0.9475031 0.3170446
vn -0.2404567 -0.8286925 0.50542
vn -0.1948336 -0.9468803 -0.2558466
vn -0.8233981 -0.5537064 0.1241966
vn -0.6934155 -0.6068261 0.3106012
vn -0.563433 -0.6599458 0.4970057
vn 0.6374596 -0.6464899 0.402716
vn 0.7109583 -0.6290702 0.314339
vn 0.5639609 -0.6639095 0.4910931
vn 0.2356604 -0.9588823 -0.1581423
vn 0.1335297 -0.8901551 0.4056118
vn 0.2785075 -0.897917 0.3408499
vn -0.01144802 -0.8823931 0.4703736
vn 0.6726811 -0.5309013 -0.4426064
vn 0.8223953 -0.5224392 -0.2252183
vn 0.5229669 -0.5393634 -0.6599945
vn 0.3644893 -0.8982558 -0.2455282
vn 0.6104806 -0.7153001 0.3400871
vn 0.3789183 -0.8462503 0.246472
vn 0.147356 -0.9772006 0.1528568
vn 0.740133 -0.6535616 -0.1583045
vn 0.6274954 -0.5247337 -0.459343
vn 0.5148578 -0.3959058 -0.7603815
vn 0.3123716 -0.7227461 -0.6164918
vn 0.8312953 -0.535064 -0.1505147
vn 0.8408552 -0.5097425 -0.177886
vn 0.8504151 -0.4844209 -0.2052573
vn 0.2946302 -0.6955686 -0.6545871
vn 0.2692381 -0.7106428 -0.6499982
vn 0.3200223 -0.6804944 -0.6591762
vn 0.2931857 -0.6968138 -0.6545936
vn 0.2866504 -0.6905204 -0.6639602
vn 0.2801151 -0.684227 -0.6733268
vn -0.2358199 -0.7171987 -0.6555735
vn -0.2425056 -0.7253284 -0.6442747
vn -0.2291342 -0.7090691 -0.6668723
vn -0.2692152 -0.7107018 -0.6499432
vn -0.8236392 -0.2608633 -0.4375252
vn -0.9023584 -0.3669124 -0.2261074
vn -0.7449198 -0.1548142 -0.6489429
vn -0.2627643 -0.7087214 -0.6547281
vn -0.2545165 -0.7298405 -0.6344716
vn -0.6147712 -0.470688 -0.2834078
vn -0.9750259 -0.2115354 0.067656
vn 0.4677705 0.8347173 0.2905819
vn 0.4616334 0.8408376 0.2823907
vn 0.4554964 0.8469579 0.2741995
vn 0.3131142 0.9207225 0.2328726
vn 0.5051053 0.8593179 -0.08025875
vn 0.4518118 0.8839021 -0.1030499
vn 0.3985183 0.9084862 -0.125841
vn 0.2733822 0.8964013 -0.3488938
vn 0.4161623 0.8345942 -0.324766
vn 0.5589423 0.7727872 -0.3006382
vn 0.1648701 0.9862596 -0.01048431
vn 0.1112151 0.9263379 -0.3599018
vn 0.2132459 0.8847186 -0.3977721
vn 0.3152766 0.8430993 -0.4356423
vn -0.2134611 0.8846338 -0.3977972
vn -0.1112824 0.9263291 -0.3599038
vn -0.3156399 0.8429385 -0.4356905
vn -0.1649683 0.986243 -0.0104947
vn -0.6118791 0.7344416 -0.2859704
vn -0.6643968 0.6964475 -0.2711787
vn -0.5593613 0.7724358 -0.3007622
vn -0.8029902 0.3169864 -0.1906539
vn -0.6109461 0.7194613 -0.3303337
vn -0.9950343 -0.08548845 -0.050974
vn -0.313188 0.9207498 0.2326653
vn -0.8718484 0.1655812 0.1821055
vn -0.8196295 0.5691793 0.06513292
vn -0.9240673 -0.2380169 0.2990781
vn -0.8553957 0.42919 0.215976
vn -0.7879138 0.597584 0.1486108
vn -0.9228776 0.260796 0.2833412
vn -0.241587 0.8629797 0.4437362
vn -0.4041722 0.7300746 0.5249526
vn -0.5077838 0.7641352 0.3978102
vn -0.3005607 0.6960139 0.652095
vn -0.1541587 0.8298857 0.5352628
vn -0.1312502 0.8210028 0.5556327
vn -0.1770672 0.8387685 0.5148928
vn -0.08570015 0.8354484 0.5428457
vn 0.08564956 0.8354537 0.5428455
vn 0.08230114 0.8364324 0.5418555
vn 0.08152813 0.8357469 0.5430266
vn 0.08075511 0.8350615 0.5441976
vn 0.3703842 0.8666761 0.3341978
vn 0.3202554 0.831746 0.4373377
vn 0.2701266 0.7968159 0.5404776
vn 0.2416201 0.8630277 0.4436249
vn 0.4281413 0.8233309 0.3725874
vn 0.4351899 0.8131865 0.3860112
vn 0.4422386 0.8030422 0.399435

usemtl GiftBox
f 3/3/1 2/2/2 1/1/1 4/4/3
f 6/6/4 5/5/5 2/2/4 3/3/6
f 7/7/8 6/6/7 3/3/8 8/8/9
f 8/8/10 3/3/12 4/4/10 9/9/11
f 8/11/14 9/10/13 11/13/15 10/12/13
f 7/14/16 8/11/16 10/12/16 12/15/16
f 12/15/17 10/12/18 14/17/19 13/16/18
f 10/12/22 11/13/20 15/18/21 14/17/20
f 14/20/24 15/19/23 17/22/24 16/21/25
f 13/23/27 14/20/26 16/21/27 18/24/28
f 18/24/29 16/21/31 20/26/29 19/25/30
f 16/21/33 17/22/34 21/27/33 20/26/32
f 20/29/36 21/28/35 23/31/36 22/30/37
f 19/32/39 20/29/38 22/30/39 24/33/40
f 24/33/41 22/30/43 26/35/41 25/34/42
f 22/30/45 23/31/46 27/36/45 26/35/44
f 26/38/48 27/37/47 29/40/48 28/39/49
f 25/41/51 26/38/50 28/39/51 30/42/52
f 30/42/53 28/39/55 32/44/53 31/43/54
f 28/39/57 29/40/58 33/45/57 32/44/56
f 32/47/60 33/46/59 35/49/60 34/48/61
f 31/50/63 32/47/62 34/48/63 36/51/64
f 36/51/65 34/48/67 38/53/65 37/52/66
f 34/48/69 35/49/70 39/54/69 38/53/68
f 38/56/72 39/55/71 41/58/73 40/57/71
f 37/59/75 38/56/74 40/57/76 42/60/74
f 42/60/77 40/57/78 44/62/79 43/61/78
f 40/57/76 41/58/80 45/63/81 44/62/80
f 46/66/82 44/65/83 45/64/82 47/67/84
f 48/69/85 43/68/86 44/65/85 46/66/87
f 5/70/89 48/69/88 46/66/89 2/71/90
f 2/71/91 46/66/93 47/67/91 1/72/92
f 9/73/94 4/76/96 50/75/94 49/74/95
f 50/75/97 52/78/97 51/77/97 49/74/97
f 4/76/100 1/79/99 52/78/98 50/75/99
f 11/83/103 54/82/101 53/81/102 15/80/101
f 54/82/104 49/85/104 51/84/104 53/81/104
f 9/86/106 49/85/105 54/82/106 11/83/107
f 56/89/108 55/88/109 21/87/108 17/90/110
f 53/92/111 51/91/111 55/88/111 56/89/111
f 53/92/112 56/89/114 17/90/112 15/93/113
f 58/96/115 57/95/116 27/94/115 23/97/117
f 55/99/118 51/98/118 57/95/118 58/96/118
f 55/99/119 58/96/120 23/97/121 21/100/120
f 60/103/124 59/102/123 33/101/122 29/104/123
f 51/105/125 59/102/125 60/103/125 57/106/125
f 57/106/126 60/103/127 29/104/128 27/107/127
f 61/109/130 39/108/129 35/111/131 62/110/129
f 62/110/130 59/113/130 51/112/130 61/109/130
f 62/110/133 35/111/134 33/114/133 59/113/132
f 41/118/137 64/117/135 63/116/136 45/115/135
f 63/116/138 64/117/138 61/120/138 51/119/138
f 64/117/138 41/118/138 39/121/138 61/120/138
f 1/122/139 47/125/141 65/124/139 52/123/140
f 52/123/142 65/124/142 63/127/142 51/126/142
f 47/125/145 45/128/144 63/127/143 65/124/144
f 67/131/148 66/130/147 5/129/146 6/132/147
f 69/134/149 68/133/149 66/130/149 67/131/149
f 7/135/151 69/134/150 67/131/151 6/132/152
f 12/139/154 70/138/155 69/137/154 7/136/153
f 68/140/156 69/137/156 70/138/156 71/141/156
f 13/142/158 71/141/157 70/138/158 12/139/159
f 13/143/160 18/146/162 72/145/160 71/144/161
f 71/144/163 72/145/163 73/148/163 68/147/163
f 18/146/164 19/149/165 73/148/164 72/145/166
f 19/150/167 24/153/169 74/152/167 73/151/168
f 73/151/170 74/152/170 75/155/170 68/154/170
f 25/156/172 75/155/171 74/152/173 24/153/171
f 75/158/175 25/157/174 30/160/176 76/159/174
f 75/158/177 76/159/177 77/162/177 68/161/177
f 76/159/180 30/160/178 31/163/179 77/162/178
f 77/165/182 31/164/181 36/167/183 78/166/181
f 68/168/184 77/165/184 78/166/184 79/169/184
f 78/166/184 36/167/184 37/170/184 79/169/184
f 80/173/185 79/172/185 37/171/185 42/174/185
f 68/175/185 79/172/185 80/173/185 81/176/185
f 81/176/186 80/173/187 42/174/188 43/177/187
f 82/180/191 81/179/190 43/178/189 48/181/190
f 66/183/192 68/182/192 81/179/192 82/180/192
f 66/183/193 82/180/194 48/181/195 5/184/194

