# Blender v2.80 (sub 43) OBJ File: ''
# www.blender.org
mtllib Acoustic_Guitar_01.mtl
o Acoustic_Guitar_01
v -0.611044 -5.202689 2.377422
v 1.207448 -5.202689 2.377422
v 1.207448 -3.852807 4.315707
v -0.611044 -3.852807 4.315707
v 1.207448 4.845676 3.643902
v 1.207448 6.351439 3.591008
v -0.611045 6.351439 3.591008
v -0.611045 7.898415 -2.019252
v 1.207448 7.898415 -2.019252
v 1.207448 6.351441 -3.591005
v -0.611045 6.351441 -3.591005
v -0.611044 -1.793492 -4.873671
v 1.207448 -1.793492 -4.873671
v 1.207448 -3.852805 -4.315709
v -0.611044 -3.852805 -4.315709
v -0.611045 4.845677 -3.643899
v 1.207448 -5.202688 -2.377424
v 1.207448 -1.793495 4.873670
v -0.611045 7.898414 2.019256
v -0.611045 8.358171 0.000002
v 1.207448 7.898414 2.019256
v 1.207448 8.358171 0.000002
v -0.611044 -5.202688 -2.377424
v -0.611044 -1.793495 4.873670
v 1.207448 4.095382 0.000001
v 1.207448 3.768721 -1.042290
v 1.207448 3.768721 1.042293
v 1.207448 3.428758 -3.148508
v 1.207448 4.845677 -3.643899
v -0.611045 3.428758 -3.148508
v 1.207448 1.234509 0.000000
v 1.207448 1.561170 -1.051586
v 1.207448 2.664945 -2.908540
v -0.611045 2.664947 -2.908540
v 1.207448 2.664946 -1.372400
v 1.207448 2.664946 2.908541
v 1.207448 2.664946 1.372401
v -0.611045 2.664944 2.908541
v 1.207448 1.561170 1.051586
v 0.081244 1.561170 1.051586
v 0.081244 2.664946 1.372401
v 0.081244 2.664946 -1.372400
v 0.081244 1.561170 -1.051586
v 0.081243 3.768721 1.042293
v 0.081243 4.095382 0.000001
v 0.081244 1.234509 0.000000
v 0.081243 3.768721 -1.042290
v 1.404310 4.206601 0.760968
v 0.007161 4.206602 0.760968
v 1.404309 14.500019 0.760970
v 0.833708 14.500019 0.760970
v 1.359340 14.881507 -0.944727
v 0.521743 17.206110 -1.052289
v 0.413914 17.485538 0.000005
v 1.404310 4.206601 -0.760966
v 0.007161 4.206602 -0.760966
v 0.833708 14.500019 -0.760963
v 1.404309 14.500019 -0.760963
v 0.050776 0.222665 2.170117
v 1.366151 0.222665 2.170117
v 1.366151 -0.606847 2.170117
v 0.050776 -0.606847 2.170117
v 0.050776 0.222665 -2.170117
v 0.050776 -0.606846 -2.170117
v 1.366151 0.222665 -2.170117
v 1.366151 -0.606846 -2.170117
v -0.095673 17.228817 0.000005
v 0.012154 16.949389 -1.052289
v 0.805777 14.845316 0.944734
v 1.359340 14.881507 0.944734
v 0.521743 17.206110 1.052298
v 0.012154 16.949389 1.052298
v 0.805777 14.845316 -0.944728
v 1.404117 -0.077790 0.462903
v 1.404117 -0.077790 0.629720
v 1.509831 -0.077790 0.629720
v 1.509831 -0.077790 0.462903
v 1.213683 15.211458 0.651195
v 1.309712 15.255659 0.651195
v 1.290359 15.404696 0.591142
v 1.408032 15.094696 0.591141
v 1.145424 14.995013 0.591141
v 1.027750 15.305013 0.591142
v 1.290359 15.404696 1.139035
v 1.027750 15.305013 1.139035
v 1.145424 14.995013 1.139034
v 1.408032 15.094696 1.139035
v 0.998802 16.124285 0.673530
v 1.116475 15.814281 0.673530
v 0.853867 15.714600 0.673530
v 0.736194 16.024601 0.673530
v 0.998802 16.124285 1.205779
v 0.736194 16.024601 1.205779
v 0.853867 15.714600 1.205778
v 1.116475 15.814281 1.205779
v 0.725855 16.856274 0.694845
v 0.843529 16.546274 0.694845
v 0.580921 16.446592 0.694845
v 0.463247 16.756592 0.694845
v 0.725855 16.856274 1.292328
v 0.463247 16.756592 1.292328
v 0.580921 16.446592 1.292328
v 0.843529 16.546274 1.292328
v 1.290359 15.404696 -0.591133
v 1.027750 15.305013 -0.591133
v 1.145424 14.995013 -0.591134
v 1.408032 15.094696 -0.591134
v 1.290359 15.404696 -1.139027
v 1.408032 15.094696 -1.139027
v 1.145424 14.995013 -1.139027
v 1.027750 15.305013 -1.139027
v 0.998802 16.124285 -0.673521
v 0.736194 16.024601 -0.673521
v 0.853867 15.714600 -0.673521
v 1.116475 15.814281 -0.673521
v 0.998802 16.124285 -1.205770
v 1.116475 15.814281 -1.205771
v 0.853867 15.714600 -1.205771
v 0.736194 16.024601 -1.205770
v 0.725855 16.856274 -0.694836
v 0.463247 16.756592 -0.694836
v 0.580921 16.446592 -0.694836
v 0.843529 16.546274 -0.694836
v 0.725855 16.856274 -1.292320
v 0.843529 16.546274 -1.292320
v 0.580921 16.446592 -1.292320
v 0.463247 16.756592 -1.292320
v 1.213683 15.211458 0.818012
v 1.309712 15.255659 0.818012
v 1.404117 14.500019 0.419978
v 1.404117 14.500019 0.253160
v 1.404117 -0.077790 0.253157
v 1.404117 -0.077790 0.419974
v 1.509830 14.500019 0.419978
v 1.509831 -0.077790 0.419974
v 1.509831 -0.077790 0.253157
v 1.509830 14.500019 0.253160
v 0.878927 15.995785 0.692274
v 0.974956 16.039986 0.692274
v 0.878927 15.995785 0.859092
v 0.974956 16.039986 0.859092
v 1.404117 14.494917 0.204937
v 1.404117 14.494917 0.038119
v 1.404117 -0.082891 0.038116
v 1.404117 -0.082891 0.204933
v 1.509830 14.494917 0.204937
v 1.509831 -0.082891 0.204933
v 1.509831 -0.082891 0.038116
v 1.509830 14.494917 0.038119
v 0.624107 16.699955 0.734320
v 0.720136 16.744154 0.734320
v 0.624107 16.699955 0.901137
v 0.720136 16.744154 0.901137
v 1.404117 -0.077790 -0.623411
v 1.404117 -0.077790 -0.451207
v 1.509830 14.500019 -0.451204
v 1.509831 -0.077790 -0.451207
v 1.509831 -0.077790 -0.623411
v 1.309712 15.255659 -0.645571
v 1.213683 15.211458 -0.645571
v 1.309712 15.255659 -0.817774
v 1.213683 15.211458 -0.817774
v 1.404117 14.500019 -0.406889
v 1.404117 -0.077790 -0.406892
v 1.404117 -0.077790 -0.234688
v 1.404117 14.500019 -0.234685
v 1.509830 14.500019 -0.406889
v 1.509830 14.500019 -0.234685
v 1.509831 -0.077790 -0.234688
v 1.509831 -0.077790 -0.406892
v 0.974956 16.039986 -0.687976
v 0.878927 15.995785 -0.687976
v 0.974956 16.039986 -0.860180
v 0.878927 15.995785 -0.860180
v 1.404117 14.494917 -0.184904
v 1.404117 -0.082891 -0.184907
v 1.404117 -0.082891 -0.012703
v 1.404117 14.494917 -0.012700
v 1.509830 14.494917 -0.184904
v 1.509830 14.494917 -0.012700
v 1.509831 -0.082891 -0.012703
v 1.509831 -0.082891 -0.184907
v 0.720136 16.744154 -0.731379
v 0.624107 16.699955 -0.731379
v 0.720136 16.744154 -0.903583
v 0.624107 16.699955 -0.903583
v 1.401219 0.025883 0.544937
v 1.548221 0.025883 0.544937
v 1.548221 -0.078063 0.440991
v 1.401219 -0.078063 0.440991
v 1.548221 -0.182009 0.544937
v 1.401219 -0.182009 0.544937
v 1.548221 -0.078063 0.648883
v 1.401219 -0.078063 0.648883
v 1.401219 0.025883 0.338980
v 1.548221 0.025883 0.338980
v 1.548221 -0.078063 0.235034
v 1.401219 -0.078063 0.235034
v 1.548221 -0.182009 0.338980
v 1.401219 -0.182009 0.338980
v 1.548221 -0.078063 0.442926
v 1.401219 -0.078063 0.442926
v 1.401219 0.025883 0.125264
v 1.548221 0.025883 0.125264
v 1.548221 -0.078063 0.021318
v 1.401219 -0.078063 0.021318
v 1.548221 -0.182009 0.125264
v 1.401219 -0.182009 0.125264
v 1.548221 -0.078063 0.229210
v 1.401219 -0.078063 0.229210
v 1.401219 0.025883 -0.097272
v 1.548221 0.025883 -0.097272
v 1.548221 -0.078063 -0.201218
v 1.401219 -0.078063 -0.201218
v 1.548221 -0.182009 -0.097272
v 1.401219 -0.182009 -0.097272
v 1.548221 -0.078063 0.006674
v 1.401219 -0.078063 0.006674
v 1.401219 0.025883 -0.315050
v 1.548221 0.025883 -0.315050
v 1.548221 -0.078063 -0.418996
v 1.401219 -0.078063 -0.418996
v 1.548221 -0.182009 -0.315050
v 1.401219 -0.182009 -0.315050
v 1.548221 -0.078063 -0.211104
v 1.401219 -0.078063 -0.211104
v 1.401219 0.025883 -0.535712
v 1.548221 0.025883 -0.535712
v 1.548221 -0.078063 -0.639658
v 1.401219 -0.078063 -0.639658
v 1.548221 -0.182009 -0.535712
v 1.401219 -0.182009 -0.535712
v 1.548221 -0.078063 -0.431766
v 1.401219 -0.078063 -0.431766
vn 0.0000 -0.8206 0.5715
vn 0.0000 0.7127 -0.7015
vn 0.0000 -0.2615 -0.9652
vn 0.0000 0.7127 0.7015
vn 0.0000 0.9750 -0.2220
vn 0.0000 -0.8206 -0.5715
vn 0.0000 0.4033 -0.9151
vn 1.0000 -0.0000 0.0000
vn -0.0893 -0.1813 0.9794
vn -1.0000 -0.0000 -0.0000
vn 0.0000 0.9750 0.2220
vn 0.0000 -0.2615 0.9652
vn 0.0000 -0.1820 -0.9833
vn 0.0000 0.4033 0.9151
vn 0.0000 -1.0000 -0.0000
vn 0.0000 0.2791 -0.9603
vn 0.0000 0.2791 0.9603
vn 0.0000 -0.9542 -0.2991
vn 0.0000 0.9550 -0.2967
vn 0.0000 -0.2865 0.9581
vn 0.0000 0.9550 0.2967
vn 0.0000 -0.2865 -0.9581
vn 0.0000 -0.9542 0.2991
vn 0.0000 1.0000 0.0000
vn -0.9355 -0.3534 0.0000
vn -0.9972 0.0743 0.0000
vn 0.0000 0.0000 1.0000
vn 0.0000 0.0000 -1.0000
vn -0.4329 0.8593 -0.2725
vn 0.0016 -0.0138 0.9999
vn 0.0016 -0.0138 -0.9999
vn -0.4329 0.8593 0.2725
vn 0.9962 0.0873 0.0000
vn 0.9994 0.0332 -0.0000
vn -0.9999 -0.0125 0.0000
vn 0.0057 -0.0260 0.9996
vn 0.0027 -0.0123 0.9999
vn 0.9410 0.0080 -0.3383
vn -0.4272 0.0059 0.9041
vn -0.0027 0.0123 -0.9999
vn -0.9349 -0.3549 0.0000
vn 0.9349 0.3549 0.0000
vn 0.3549 -0.9349 0.0000
vn -0.3549 0.9349 0.0000
vn -0.4181 0.9084 0.0000
vn -0.9995 -0.0327 0.0000
vn 0.9989 0.0469 -0.0000
vn -0.0059 0.0268 0.9996
vn -0.0057 0.0260 -0.9996
vn -0.9989 -0.0464 0.0000
vn -0.0089 0.0406 0.9991
vn -0.0086 0.0394 -0.9992
vn 0.0028 -0.0127 -0.9999
vn 0.9999 0.0131 0.0000
vn 0.0059 -0.0268 -0.9996
vn 0.0086 -0.0394 0.9992
vn 0.0089 -0.0406 -0.9991
vn 0.0000 0.7071 -0.7071
vn 0.0000 -0.7071 -0.7071
vn 0.0000 -0.7071 0.7071
vn 0.0000 0.7071 0.7071
usemtl DD9944
s 1
f 1//1 2//1 3//1 4//1
f 8//2 9//2 10//2 11//2
f 12//3 13//3 14//3 15//3
f 7//4 6//4 21//4 19//4
f 20//5 22//5 9//5 8//5
f 15//6 14//6 17//6 23//6
f 12//7 34//7 33//7 13//7
f 39//8 37//8 27//8 5//8 36//8 18//8 3//8 2//8 17//8 14//8 13//8 33//8 28//8 29//8 10//8 9//8 22//8 25//8 26//8 35//8 32//8 31//8
f 7//9 38//9 36//9 5//9 6//9
f 38//10 7//10 19//10 20//10 8//10 11//10 16//10 30//10 34//10 12//10 15//10 23//10 1//10 4//10 24//10
f 19//11 21//11 22//11 20//11
f 4//12 3//12 18//12 24//12
f 5//8 27//8 25//8 22//8 21//8 6//8
f 33//13 34//13 30//13 16//13 11//13 10//13 29//13 28//13
f 36//14 38//14 24//14 18//14
f 23//15 17//15 2//15 1//15
usemtl 1A1A1A
f 46//8 43//8 42//8 47//8 45//8 44//8 41//8 40//8
f 37//16 39//16 40//16 41//16
f 32//17 35//17 42//17 43//17
f 25//18 27//18 44//18 45//18
f 39//19 31//19 46//19 40//19
f 35//20 26//20 47//20 42//20
f 31//21 32//21 43//21 46//21
f 27//22 37//22 41//22 44//22
f 26//23 25//23 45//23 47//23
usemtl 795548
f 65//8 60//8 61//8 66//8
f 63//24 59//24 60//24 65//24
f 59//10 63//10 64//10 62//10
f 73//25 69//25 72//25 67//25 68//25
f 51//26 69//26 73//26 57//26 56//26 49//26
f 60//27 59//27 62//27 61//27
f 63//28 65//28 66//28 64//28
f 67//29 54//29 53//29 68//29
f 50//30 70//30 71//30 72//30 69//30 51//30 49//30 48//30
f 57//31 73//31 68//31 53//31 52//31 58//31 55//31 56//31
f 72//32 71//32 54//32 67//32
f 56//15 55//15 48//15 49//15
f 50//33 48//33 55//33 58//33 52//33 53//33 54//33 71//33 70//33
f 66//15 61//15 62//15 64//15
usemtl 455A64
f 167//34 173//34 171//34 168//34 169//34 170//34
f 75//35 128//35 78//35 74//35
f 134//36 141//36 140//36 130//36 133//36 135//36
f 76//37 129//37 128//37 75//37
f 155//35 160//35 162//35 154//35
f 158//38 161//38 159//38 156//38 157//38
f 75//15 74//15 77//15 76//15
f 156//39 159//39 160//39 155//39 157//39
f 74//40 78//40 79//40 77//40
f 80//28 81//28 82//28 83//28
f 84//27 85//27 86//27 87//27
f 82//41 86//41 85//41 83//41
f 80//42 84//42 87//42 81//42
f 81//43 87//43 86//43 82//43
f 83//44 85//44 84//44 80//44
f 88//28 89//28 90//28 91//28
f 92//27 93//27 94//27 95//27
f 90//41 94//41 93//41 91//41
f 88//42 92//42 95//42 89//42
f 89//43 95//43 94//43 90//43
f 91//44 93//44 92//44 88//44
f 96//28 97//28 98//28 99//28
f 100//27 101//27 102//27 103//27
f 98//41 102//41 101//41 99//41
f 96//42 100//42 103//42 97//42
f 97//43 103//43 102//43 98//43
f 99//44 101//44 100//44 96//44
f 104//27 105//27 106//27 107//27
f 108//28 109//28 110//28 111//28
f 106//41 105//41 111//41 110//41
f 104//42 107//42 109//42 108//42
f 107//43 106//43 110//43 109//43
f 105//44 104//44 108//44 111//44
f 112//27 113//27 114//27 115//27
f 116//28 117//28 118//28 119//28
f 114//41 113//41 119//41 118//41
f 112//42 115//42 117//42 116//42
f 115//43 114//43 118//43 117//43
f 113//44 112//44 116//44 119//44
f 120//27 121//27 122//27 123//27
f 124//28 125//28 126//28 127//28
f 122//41 121//41 127//41 126//41
f 120//42 123//42 125//42 124//42
f 123//43 122//43 126//43 125//43
f 121//44 120//44 124//44 127//44
f 78//45 128//45 129//45 79//45
f 166//46 172//46 174//46 163//46 164//46 165//46
f 179//47 185//47 183//47 180//47 181//47 182//47
f 133//15 132//15 136//15 135//15
f 168//48 171//48 172//48 166//48 165//48 169//48
f 131//49 138//49 139//49 137//49 136//49 132//49
f 138//45 140//45 141//45 139//45
f 178//50 184//50 186//50 175//50 176//50 177//50
f 130//46 140//46 138//46 131//46 132//46 133//46
f 145//15 144//15 148//15 147//15
f 180//51 183//51 184//51 178//51 177//51 181//51
f 143//52 150//52 151//52 149//52 148//52 144//52
f 150//45 152//45 153//45 151//45
f 154//15 158//15 157//15 155//15
f 154//53 162//53 161//53 158//53
f 77//54 79//54 129//54 76//54
f 160//45 159//45 161//45 162//45
f 142//50 152//50 150//50 143//50 144//50 145//50
f 137//34 139//34 141//34 134//34 135//34 136//34
f 164//15 170//15 169//15 165//15
f 163//55 174//55 173//55 167//55 170//55 164//55
f 146//56 153//56 152//56 142//56 145//56 147//56
f 172//45 171//45 173//45 174//45
f 149//47 151//47 153//47 146//47 147//47 148//47
f 176//15 182//15 181//15 177//15
f 175//57 186//57 185//57 179//57 182//57 176//57
f 184//45 183//45 185//45 186//45
f 187//58 188//58 189//58 190//58
f 190//59 189//59 191//59 192//59
f 192//60 191//60 193//60 194//60
f 194//61 193//61 188//61 187//61
f 190//10 192//10 194//10 187//10
f 191//8 189//8 188//8 193//8
f 195//58 196//58 197//58 198//58
f 198//59 197//59 199//59 200//59
f 200//60 199//60 201//60 202//60
f 202//61 201//61 196//61 195//61
f 198//10 200//10 202//10 195//10
f 199//8 197//8 196//8 201//8
f 203//58 204//58 205//58 206//58
f 206//59 205//59 207//59 208//59
f 208//60 207//60 209//60 210//60
f 210//61 209//61 204//61 203//61
f 206//10 208//10 210//10 203//10
f 207//8 205//8 204//8 209//8
f 211//58 212//58 213//58 214//58
f 214//59 213//59 215//59 216//59
f 216//60 215//60 217//60 218//60
f 218//61 217//61 212//61 211//61
f 214//10 216//10 218//10 211//10
f 215//8 213//8 212//8 217//8
f 219//58 220//58 221//58 222//58
f 222//59 221//59 223//59 224//59
f 224//60 223//60 225//60 226//60
f 226//61 225//61 220//61 219//61
f 222//10 224//10 226//10 219//10
f 223//8 221//8 220//8 225//8
f 227//58 228//58 229//58 230//58
f 230//59 229//59 231//59 232//59
f 232//60 231//60 233//60 234//60
f 234//61 233//61 228//61 227//61
f 230//10 232//10 234//10 227//10
f 231//8 229//8 228//8 233//8
