# Blender v2.80 (sub 43) OBJ File: ''
# www.blender.org
mtllib BaseBall_Bat_01.mtl
o BaseBall_Bat_01
v 0.160590 0.047867 -0.160590
v 0.160590 0.150462 -0.160590
v 0.227109 0.150462 0.000000
v 0.227109 0.047867 0.000000
v 0.160590 0.047867 0.160590
v 0.160590 0.150462 0.160590
v 0.000000 0.150462 0.227109
v 0.000000 0.047867 0.227109
v -0.160590 0.047867 0.160590
v -0.160590 0.150462 0.160590
v -0.227109 0.150462 0.000000
v -0.227109 0.047867 0.000000
v -0.160590 0.047867 -0.160590
v -0.160590 0.150462 -0.160590
v 0.000000 0.150462 -0.227109
v 0.000000 0.047867 -0.227109
v 0.002118 0.219594 -0.123373
v 0.089881 0.214850 -0.086553
v 0.121801 0.221397 0.000000
v 0.089731 0.212829 0.089731
v -0.002118 0.219594 0.123373
v -0.089881 0.214850 0.086553
v -0.121801 0.221397 0.000000
v -0.089731 0.212829 -0.089731
v 0.110729 2.004811 0.000000
v 0.288629 6.625216 0.000001
v 0.202416 6.626510 0.202417
v 0.078293 2.004361 0.078293
v 0.001216 2.002497 0.109534
v 0.000000 6.640716 0.284989
v -0.202416 6.626510 0.202417
v -0.077996 2.006463 0.080080
v -0.110729 2.004811 0.000000
v -0.284988 6.640716 0.000001
v -0.202416 6.626510 -0.202415
v -0.078293 2.004361 -0.078292
v 0.077996 2.006463 -0.080079
v 0.202416 6.626510 -0.202415
v 0.000000 6.640716 -0.284987
v -0.001216 2.002497 -0.109533
v 0.157624 6.672116 -0.157623
v 0.222914 6.672116 0.000001
v 0.157624 6.672116 0.157625
v -0.157624 6.672116 0.157625
v -0.157624 6.672116 -0.157623
v -0.000000 6.692768 0.000001
v 0.168703 0.017886 -0.053690
v 0.052645 0.016174 0.165417
v -0.165417 0.016174 0.052645
v -0.052645 0.016174 -0.165417
vn 0.1140 0.9524 0.2828
vn 0.2871 0.5134 0.8087
vn 0.3740 0.3611 0.8543
vn -0.2526 0.9340 0.2526
vn -0.8085 0.5134 0.2876
vn -0.8541 0.3610 0.3745
vn -0.2526 0.9340 -0.2526
vn -0.2871 0.5134 -0.8087
vn -0.3740 0.3610 -0.8543
vn 0.2820 0.5133 -0.8106
vn 0.1140 0.9524 -0.2828
vn 0.3693 0.3612 -0.8562
vn -0.2820 0.5133 0.8106
vn -0.3693 0.3612 0.8562
vn -0.8082 0.5134 -0.2883
vn -0.8538 0.3611 -0.3751
vn -0.0652 0.9957 -0.0652
vn 0.0208 0.9938 -0.1094
vn 0.0922 0.9950 -0.0382
vn 0.0208 0.9938 0.1094
vn -0.0652 0.9957 0.0652
vn 0.0922 0.9950 0.0382
vn 0.1906 -0.9301 0.3141
vn 0.0047 -1.0000 -0.0015
vn 0.3304 -0.9363 -0.1189
vn 0.0719 -0.9874 -0.1408
vn 0.3827 -0.0000 0.9239
vn -0.9239 -0.0000 0.3827
vn -0.3827 0.0000 -0.9239
vn 0.3827 0.0000 -0.9239
vn 0.9239 -0.0000 0.3827
vn -0.3827 -0.0000 0.9239
vn -0.9239 0.0000 -0.3827
vn 0.3300 0.5155 -0.7908
vn 0.2339 0.8186 -0.5246
vn 0.3332 0.4987 -0.8002
vn 0.7839 0.5305 0.3225
vn 0.5248 0.8183 0.2347
vn 0.8107 0.4830 0.3309
vn -0.3300 0.5155 0.7908
vn -0.2339 0.8186 0.5246
vn -0.3332 0.4987 0.8002
vn -0.7839 0.5305 -0.3225
vn -0.5248 0.8183 -0.2347
vn -0.8107 0.4830 -0.3309
vn 0.5294 0.8159 -0.2325
vn 0.7874 0.5251 -0.3229
vn 0.8093 0.4858 -0.3301
vn 0.2294 0.8212 0.5226
vn 0.3204 0.5282 0.7863
vn 0.3275 0.4890 0.8084
vn -0.5294 0.8159 0.2325
vn -0.7874 0.5251 0.3229
vn -0.8093 0.4858 0.3301
vn -0.2294 0.8212 -0.5226
vn -0.3204 0.5282 -0.7863
vn -0.3275 0.4890 -0.8084
vn 0.9273 -0.0141 0.3741
vn 0.9272 -0.0143 0.3742
vn 0.8562 0.3706 0.3600
vn 0.8539 0.3767 0.3590
vn -0.3687 -0.0147 0.9294
vn -0.3687 -0.0135 0.9295
vn -0.9297 -0.0139 -0.3681
vn -0.9296 -0.0141 -0.3682
vn 0.8565 0.3706 -0.3594
vn 0.9269 -0.0141 -0.3750
vn 0.9268 -0.0147 -0.3753
vn 0.8542 0.3766 -0.3584
vn 0.3672 -0.0135 0.9301
vn 0.3674 -0.0141 0.9300
vn -0.9293 -0.0139 0.3691
vn -0.9292 -0.0144 0.3693
vn -0.3672 -0.0135 -0.9301
vn -0.3674 -0.0141 -0.9300
vn 0.3687 -0.0147 -0.9294
vn 0.3687 -0.0135 -0.9295
vn 0.5660 0.7901 -0.2353
vn 0.5660 0.7901 0.2353
vn 0.9239 0.0000 -0.3827
vn 0.1468 -0.9408 -0.3054
vn 0.2312 -0.9247 -0.3026
vn 0.6170 -0.7443 -0.2556
vn 0.3019 -0.9247 0.2317
vn 0.2495 -0.7582 0.6024
vn -0.2345 -0.9233 0.3043
vn -0.6024 -0.7582 0.2495
vn -0.4613 -0.8427 0.2775
vn -0.3043 -0.9233 -0.2345
vn -0.2495 -0.7582 -0.6024
vn -0.2775 -0.8427 -0.4613
vn 0.3068 -0.9409 0.1433
vn -0.1466 -0.9395 0.3097
vn -0.3097 -0.9395 -0.1466
usemtl 795548.001
s 1
f 43//1 30//2 27//3
f 44//4 34//5 31//6
f 45//7 39//8 35//9
f 39//10 41//11 38//12
f 30//13 44//4 31//14
f 34//15 45//7 35//16
f 46//17 45//7 34//15
f 41//11 46//18 42//19
f 43//1 46//20 30//2
f 44//4 46//21 34//5
f 45//7 46//17 39//8
f 46//18 41//11 39//10
f 46//20 43//1 42//22
f 46//21 44//4 30//13
f 48//23 49//24 47//25
f 49//24 50//26 47//25
f 8//27 5//27 6//27 7//27
f 12//28 9//28 10//28 11//28
f 16//29 13//29 14//29 15//29
f 1//30 16//30 15//30 2//30
f 5//31 4//31 3//31 6//31
f 9//32 8//32 7//32 10//32
f 13//33 12//33 11//33 14//33
f 18//34 2//35 15//35 17//36
f 20//37 6//38 3//38 19//39
f 22//40 10//41 7//41 21//42
f 24//43 14//44 11//44 23//45
f 3//46 2//46 18//47 19//48
f 7//49 6//49 20//50 21//51
f 11//52 10//52 22//53 23//54
f 15//55 14//55 24//56 17//57
f 28//58 25//59 26//60 27//61
f 32//62 29//63 30//13 31//14
f 36//64 33//65 34//15 35//16
f 26//66 25//67 37//68 38//69
f 30//2 29//70 28//71 27//3
f 34//5 33//72 32//73 31//6
f 39//8 40//74 36//75 35//9
f 37//76 40//77 39//10 38//12
f 26//66 38//69 41//78 42//78
f 43//79 27//61 26//60 42//79
f 4//80 1//80 2//80 3//80
f 50//26 16//81 1//82 47//25
f 1//82 4//83 47//25
f 5//84 8//85 48//23
f 9//86 12//87 49//88
f 13//89 16//90 50//91
f 47//25 4//92 5//84 48//23
f 48//93 8//93 9//86 49//88
f 49//94 12//94 13//89 50//91
usemtl 1A1A1A.001
f 19//48 18//47 37//68 25//67
f 21//51 20//50 28//71 29//70
f 23//54 22//53 32//73 33//72
f 17//57 24//56 36//75 40//74
f 18//34 17//36 40//77 37//76
f 28//58 20//37 19//39 25//59
f 22//40 21//42 29//63 32//62
f 36//64 24//43 23//45 33//65
