# Blender v2.80 (sub 43) OBJ File: ''
# www.blender.org
mtllib Globe_01.mtl
o Globe_01
v -0.078471 0.437293 0.044327
v -0.529527 0.696279 0.047449
v -0.601728 0.623456 0.009245
v -0.935535 1.628572 0.009245
v -0.796840 2.004195 0.047359
v 0.075433 0.389642 0.039375
v 0.064669 0.385157 -0.023483
v 0.759689 0.668698 0.009245
v -0.772429 0.944709 0.009245
v -0.922955 1.283358 0.009245
v -0.560674 2.252726 0.047361
v -0.004050 2.483854 0.009243
v -0.002144 0.476806 -0.028661
v -0.529537 0.696286 -0.028869
v -0.677286 2.176412 -0.029443
v -0.078335 0.392147 -0.022674
v 0.079944 0.109872 0.007743
v 0.485278 0.069494 0.008718
v -0.865842 2.080623 0.009245
v -1.051679 1.425310 -0.024125
v -1.027829 1.629982 0.042292
v 0.717086 0.757276 0.009245
v -0.630663 2.329152 0.009246
v -0.043554 2.573113 0.009245
v -0.844754 0.872019 -0.023776
v -1.018524 1.285186 0.042277
v -0.085130 0.108524 0.043315
v -0.079338 0.108510 -0.028934
v -0.499254 0.002114 0.009498
v 0.382647 0.055167 -0.357046
v 0.483434 0.002114 0.009245
v -0.395428 0.055224 -0.357035
v -0.497172 0.069497 0.009384
v -0.395278 0.055098 0.375570
v -0.005813 0.069728 0.451885
v -0.005330 0.069733 -0.433352
v 0.382659 0.055295 0.375544
v -0.007946 0.002114 0.452067
v -0.007946 0.002114 -0.433578
v -0.844755 0.872020 0.042285
v -0.438766 2.495116 0.009245
v 0.427942 0.459338 0.014018
v 0.387893 0.442749 0.004472
v 0.641681 0.921074 0.310541
v 0.712675 1.316780 0.517786
v -0.130667 1.039615 0.767355
v -0.067495 1.356494 0.880549
v -0.130667 1.039615 -0.767354
v -0.318287 0.950698 -0.652464
v -0.462967 1.356493 -0.752052
v 0.641681 0.921074 -0.310540
v 0.353569 1.002769 -0.672701
v 0.712675 1.316781 -0.517785
v -0.462967 1.356493 0.752053
v -0.770179 1.039618 0.112849
v -0.880081 1.396026 0.139058
v -0.858310 1.356495 -0.207909
v -0.067495 1.356494 -0.880548
v -0.689419 1.891796 0.361399
v -0.353569 1.928643 0.672701
v -0.462872 2.147253 0.336292
v -0.641681 2.010339 -0.310540
v 0.770179 1.891794 0.112849
v 0.648637 1.998273 -0.307211
v 0.622339 2.090613 0.120606
v 0.353719 2.282243 0.000000
v 0.366723 2.195558 -0.355126
v 0.029887 2.284037 -0.358017
v 0.318287 1.980715 -0.652463
v -0.186703 2.120119 -0.574605
v -0.331259 2.284037 -0.139058
v -0.353569 1.928644 -0.672701
v -0.095996 2.345127 0.069743
v -0.687248 2.027507 0.076678
v -0.224424 2.195559 0.458513
v 0.109303 2.282243 0.336406
v 0.366723 2.195558 0.355127
v 0.858309 1.574918 -0.207909
v 0.692130 1.713445 -0.502859
v 0.404214 1.535387 -0.794035
v -0.339812 1.591378 -0.813646
v 0.003005 1.699981 -0.858758
v -0.712675 1.614632 -0.517785
v -0.855517 1.713445 0.000000
v -0.712675 1.614632 0.517786
v -0.339812 1.591376 0.813646
v 0.858309 1.574918 0.207909
v 0.692129 1.713444 0.502860
v 0.264372 1.217967 -0.813644
v -0.692129 1.217967 -0.502860
v -0.681446 1.002771 -0.336408
v -0.692129 1.217968 0.502860
v -0.530520 1.002769 0.544138
v 0.404213 1.535387 0.794035
v 0.003005 1.699981 0.858759
v 0.264371 1.217967 0.813645
v 0.344186 0.933139 0.629796
v 0.878831 1.340036 -0.071748
v 0.809833 1.102251 0.076679
v 0.286164 0.649170 -0.207909
v 0.186703 0.811295 -0.574605
v -0.029887 0.647376 -0.358017
v -0.488791 0.811296 -0.355126
v -0.575528 0.786925 0.082208
v -0.366723 0.735854 0.355127
v -0.036667 0.586286 0.112850
v -0.176797 0.784159 0.544137
v 0.331259 0.647376 0.139059
v 0.087950 0.735854 0.502856
v 0.130667 1.891797 0.767355
v 0.530521 1.928643 0.544138
v 0.077607 2.090615 0.629147
v 0.130667 1.891798 -0.767354
v -0.280609 0.629601 -0.120604
vn 0.1473 0.4256 0.8929
vn -0.4760 -0.8772 -0.0631
vn 0.0564 -0.0714 0.9959
vn 0.1531 -0.3013 -0.9412
vn 0.9385 -0.3454 0.0017
vn 0.4692 -0.3212 0.8226
vn 0.5786 -0.5991 -0.5535
vn -0.1976 0.9800 -0.0215
vn 0.1927 -0.4175 0.8880
vn -0.9815 -0.0619 0.1809
vn -0.6551 -0.2769 -0.7030
vn -0.6517 -0.2498 0.7161
vn 0.8981 -0.0001 -0.4398
vn 0.9578 -0.2845 0.0420
vn 0.2241 -0.0976 -0.9697
vn -0.5829 -0.2702 -0.7663
vn -0.9322 0.0113 -0.3618
vn -0.6981 -0.0357 0.7151
vn -0.6737 0.0762 0.7351
vn -0.0445 -0.9035 0.4263
vn 0.0026 0.6415 0.7671
vn 0.2912 -0.9318 0.2168
vn 0.7216 -0.6923 0.0009
vn 0.7868 0.6172 -0.0013
vn -0.7687 0.6396 0.0008
vn -0.6784 0.0779 -0.7305
vn -0.7537 -0.6572 0.0004
vn 0.0036 0.6416 -0.7671
vn 0.0729 0.9662 -0.2472
vn 0.1928 -0.0042 -0.9812
vn -0.0450 -0.9023 -0.4287
vn 0.2926 -0.9311 -0.2180
vn 0.0069 0.9948 -0.1016
vn -0.0987 0.9951 -0.0116
vn -0.4434 0.2467 0.8617
vn 0.0991 0.9951 -0.0003
vn 0.2272 0.0088 -0.9738
vn 0.3065 0.0155 -0.9517
vn 0.6827 0.0225 0.7304
vn 0.4803 0.4772 -0.7359
vn 0.5971 0.8022 -0.0007
vn 0.4801 0.4771 0.7361
vn 0.1226 0.0048 0.9924
vn 0.3721 0.6722 0.6401
vn 0.3842 0.9232 0.0000
vn -0.2103 0.4710 -0.8567
vn 0.6926 0.7213 0.0024
vn -0.1402 0.0392 0.9893
vn -0.8243 0.2594 -0.5033
vn -0.9533 0.2975 -0.0513
vn -0.2396 0.9707 -0.0183
vn -0.1267 0.5131 -0.8489
vn 0.8563 0.3528 -0.3772
vn 0.9235 0.3829 0.0216
vn 0.0472 -0.0280 0.9985
vn 0.8067 -0.3464 0.4788
vn 0.5229 -0.2286 0.8212
vn -0.2780 0.2592 -0.9249
vn -0.4423 0.3915 -0.8069
vn -0.0979 0.9936 -0.0564
vn 0.0444 0.9941 -0.0991
vn 0.0058 0.9949 0.1011
vn 0.0717 0.9667 0.2458
vn 0.0434 0.9942 0.0982
vn 0.1927 -0.0034 0.9813
vn -0.1048 -0.1754 -0.9789
vn -0.6619 -0.2759 0.6969
vn -0.0233 -0.0124 0.9997
vn -0.0960 0.0906 0.9913
vn -0.4541 0.4303 0.7801
vn -0.1107 -0.0981 -0.9890
vn -0.5027 -0.4842 -0.7161
vn -0.7150 -0.6991 0.0000
vn -0.1732 0.9849 0.0036
vn 0.6815 0.7315 0.0223
vn 0.6589 0.7521 0.0076
vn -0.3669 -0.3430 -0.8647
vn 0.6516 -0.4404 -0.6177
vn -0.2977 -0.2680 0.9163
vn -0.9558 -0.2928 -0.0266
vn -0.2977 -0.2680 -0.9163
vn -0.5882 0.5773 0.5663
vn 0.7984 0.5968 -0.0797
vn 0.6139 0.7785 -0.1303
vn 0.5843 0.7931 -0.1722
vn 0.5399 0.6381 -0.5490
vn -0.2502 0.8758 -0.4127
vn -0.4441 0.7800 -0.4409
vn -0.4795 0.6934 -0.5379
vn -0.3773 0.9125 0.1581
vn -0.6978 0.6487 0.3039
vn -0.4383 0.6819 0.5855
vn 0.8992 0.4086 -0.1566
vn 0.8755 0.3572 -0.3255
vn 0.8819 0.0633 -0.4672
vn 0.6082 0.5104 -0.6079
vn 0.6902 0.0629 -0.7209
vn 0.5518 0.3475 -0.7581
vn -0.1594 0.0951 -0.9826
vn -0.3078 -0.0870 -0.9474
vn -0.6129 0.1164 -0.7815
vn -0.5830 0.2929 -0.7578
vn -0.6516 0.4404 -0.6177
vn -0.9393 0.1781 -0.2931
vn -0.8951 0.3221 -0.3084
vn -0.8619 0.4919 -0.1232
vn -0.6421 0.4169 0.6434
vn -0.6129 0.1164 0.7815
vn -0.3078 -0.0870 0.9474
vn 0.8779 0.3441 0.3330
vn 0.5701 -0.2020 -0.7964
vn 0.5711 -0.2708 -0.7749
vn -0.7168 -0.0633 -0.6944
vn -0.8819 -0.0633 -0.4672
vn -0.5652 -0.3811 -0.7316
vn -0.6067 -0.5050 -0.6139
vn -0.8826 -0.3143 -0.3497
vn -0.9050 -0.3995 -0.1460
vn -0.6053 -0.3143 0.7313
vn -0.4185 -0.3995 0.8156
vn 0.1702 0.0276 0.9850
vn 0.1886 -0.0224 0.9818
vn 0.0454 -0.3441 0.9378
vn 0.1314 -0.5114 0.8493
vn 0.6481 -0.4413 0.6206
vn 0.9393 -0.1778 0.2934
vn 0.9672 -0.1551 0.2012
vn 0.9327 -0.1164 -0.3414
vn 0.8682 -0.3434 0.3582
vn 0.8973 -0.3898 -0.2073
vn 0.8916 -0.3250 -0.3152
vn 0.4516 -0.7643 -0.4604
vn 0.4795 -0.6934 -0.5379
vn 0.2154 -0.8702 -0.4432
vn -0.1024 -0.7413 -0.6634
vn -0.0891 -0.7119 -0.6966
vn -0.2869 -0.7936 -0.5366
vn -0.5951 -0.5406 -0.5947
vn -0.7023 -0.6893 -0.1777
vn -0.7939 -0.5985 -0.1077
vn -0.6495 -0.6626 0.3729
vn -0.1401 -0.9164 0.3749
vn -0.4215 -0.6819 0.5978
vn -0.3568 -0.5773 0.7344
vn 0.7330 -0.6803 0.0000
vn 0.6613 -0.7501 0.0000
vn 0.5907 -0.8028 -0.0809
vn -0.1071 -0.9164 0.3857
vn -0.0026 -0.6577 0.7533
vn 0.0880 -0.6173 0.7818
vn 0.1333 -0.9389 0.3175
vn 0.3489 0.5959 0.7233
vn 0.2090 0.7762 -0.5949
vn 0.1024 0.7413 -0.6634
vn 0.0891 0.7119 -0.6966
vn -0.1227 0.5351 -0.8358
vn -0.6234 0.7745 -0.1077
vn -0.5466 0.8327 0.0883
vn -0.0176 0.8374 0.5463
vn -0.1773 0.6667 0.7239
vn -0.1208 0.5447 0.8299
vn 0.2302 0.8026 0.5503
vn 0.5141 0.8374 0.1856
vn 0.3623 0.6764 0.6413
vn 0.6337 0.6667 0.3923
vn 0.7520 0.5447 0.3713
vn 0.3656 0.3453 -0.8643
vn -0.1301 0.4958 -0.8587
vn -0.2346 0.3667 -0.9003
vn -0.9966 0.0474 -0.0679
vn -0.8835 0.4255 0.1961
vn -0.9336 0.2020 0.2961
vn -0.9209 0.2472 0.3012
vn -0.5830 0.2929 0.7578
vn -0.2346 0.3667 0.9003
vn -0.1301 0.4958 0.8587
vn -0.1594 0.0951 0.9826
vn 0.4224 0.3856 0.8203
vn 0.5840 0.2934 0.7569
vn 0.6902 0.0629 0.7209
vn 0.7718 0.5056 0.3857
vn 0.8819 0.0633 0.4672
vn 0.2599 0.2689 -0.9274
vn 0.1702 0.0276 -0.9850
vn 0.1886 -0.0224 -0.9818
vn 0.1283 -0.5056 -0.8532
vn 0.0454 -0.3441 -0.9378
vn -0.8989 -0.0629 0.4336
vn -0.7168 -0.0633 0.6944
vn -0.8993 -0.3007 0.3175
vn -0.7718 -0.5056 0.3857
vn 0.2599 0.2689 0.9274
vn 0.5701 -0.2020 0.7964
vn 0.5697 -0.3270 0.7540
vn 0.9634 0.2680 0.0000
vn 0.9962 0.0870 0.0000
vn 0.1227 -0.5351 -0.8358
vn -0.7212 -0.5980 0.3497
vn 0.3903 -0.8001 0.4556
vn 0.4431 -0.7797 0.4424
vn -0.0522 -0.9902 -0.1292
vn 0.0661 -0.9896 -0.1274
vn 0.1217 0.9870 -0.1051
vn 0.2496 0.9428 -0.2210
vn -0.1033 0.9800 -0.1703
vn -0.3133 0.9164 0.2491
vn -0.1271 0.9391 0.3193
vn 0.1547 0.9816 0.1124
vn 0.2974 0.9300 0.2161
vn -0.3114 -0.8649 -0.3936
vn -0.5455 -0.8239 -0.1541
vn -0.3946 -0.9094 0.1317
vn -0.3127 -0.9375 0.1528
vn 0.1656 -0.9858 -0.0266
usemtl 795548.002
s 1
f 2//1 3//2 1//3
f 7//4 8//5 6//6
f 15//7 12//8 11//9
f 20//10 25//11 26//12
f 7//13 17//14 28//15
f 16//16 28//17 27//18
f 34//19 38//20 35//21
f 37//22 31//23 18//24
f 33//25 32//26 29//27
f 36//28 30//29 39//30
f 29//27 39//31 30//32
f 29//27 38//20 34//19
f 28//33 36//28 32//26
f 27//34 33//25 34//19
f 29//27 31//23 37//22
f 16//16 27//18 1//35
f 6//6 17//14 7//13
f 17//36 18//24 30//32
f 20//37 4//38 10//39
f 14//40 9//41 2//42
f 20//10 26//12 21//43
f 13//44 2//1 1//3
f 13//44 14//45 2//1
f 7//4 16//16 13//46 22//47 8//5
f 22//47 1//35 6//6 8//5
f 17//36 37//22 18//24
f 19//48 20//49 21//50
f 24//51 12//8 15//7 23//52
f 10//53 9//54 25//11 20//10
f 4//55 15//56 5//57
f 15//58 4//38 20//37 19//59
f 33//25 27//34 28//60 32//26
f 29//27 30//32 31//23
f 36//28 28//33 17//61 30//29
f 27//62 34//19 35//21
f 35//21 37//63 17//64 27//62
f 29//27 37//22 38//20
f 29//27 32//26 39//31
f 32//26 36//28 39//31
f 35//21 38//65 37//63
f 17//14 6//6 1//35 27//18
f 16//16 7//4 28//17
f 24//51 23//52 11//9 12//8
f 33//25 29//27 34//19
f 30//32 18//24 31//23
f 16//16 3//2 14//66 13//46
f 3//2 16//16 1//3
f 21//50 4//55 5//57 19//48
f 40//67 9//54 10//53 26//12
f 22//47 13//46 1//35
f 40//68 3//68 2//42 9//41
f 26//12 25//11 40//67
f 26//12 10//39 4//38 21//43
f 19//59 5//69 11//9 23//70
f 14//40 3//71 25//72 9//41
f 19//59 23//70 15//58
f 3//71 40//73 25//72
f 11//9 5//69 15//7
f 41//74 42//75 43//76
f 41//74 43//76 42//75
usemtl 039BE5
f 48//77 49//77 50//77
f 51//78 52//78 53//78
f 46//79 47//79 54//79
f 55//80 56//80 57//80
f 48//81 50//81 58//81
f 59//82 60//82 61//82
f 63//83 64//83 65//83
f 65//84 64//84 66//84
f 66//85 64//85 67//85
f 64//86 69//86 67//86
f 68//87 70//87 71//87
f 70//88 62//88 71//88
f 70//89 72//89 62//89
f 71//90 61//90 73//90
f 74//91 59//91 61//91
f 61//92 60//92 75//92
f 78//93 64//93 63//93
f 78//94 79//94 64//94
f 78//95 53//95 79//95
f 79//96 69//96 64//96
f 53//97 80//97 79//97
f 79//98 80//98 69//98
f 58//99 81//99 82//99
f 58//100 50//100 81//100
f 50//101 83//101 81//101
f 81//102 83//102 72//102
f 83//103 62//103 72//103
f 57//104 84//104 83//104
f 83//105 84//105 62//105
f 84//106 74//106 62//106
f 85//107 60//107 59//107
f 54//108 86//108 85//108
f 54//109 47//109 86//109
f 88//110 87//110 63//110
f 53//111 89//111 80//111
f 53//112 52//112 89//112
f 50//113 90//113 83//113
f 83//114 90//114 57//114
f 50//115 49//115 90//115
f 49//116 91//116 90//116
f 90//117 91//117 57//117
f 91//118 55//118 57//118
f 92//119 93//119 54//119
f 93//120 46//120 54//120
f 47//121 94//121 95//121
f 47//122 96//122 94//122
f 47//123 46//123 96//123
f 46//124 97//124 96//124
f 97//125 44//125 45//125
f 45//126 99//126 87//126
f 87//127 99//127 98//127
f 98//128 53//128 78//128
f 45//129 44//129 99//129
f 99//130 51//130 98//130
f 98//131 51//131 53//131
f 100//132 101//132 51//132
f 51//133 101//133 52//133
f 100//134 102//134 101//134
f 102//135 49//135 101//135
f 101//136 49//136 48//136
f 102//137 103//137 49//137
f 103//138 91//138 49//138
f 103//139 104//139 91//139
f 104//140 55//140 91//140
f 104//141 105//141 93//141
f 106//142 107//142 105//142
f 105//143 107//143 93//143
f 107//144 46//144 93//144
f 99//145 44//145 51//145
f 44//146 108//146 51//146
f 51//147 108//147 100//147
f 106//148 109//148 107//148
f 107//149 109//149 46//149
f 109//150 97//150 46//150
f 106//151 108//151 109//151
usemtl 8BC34A
f 110//152 111//152 112//152
f 67//153 69//153 68//153
f 69//154 70//154 68//154
f 69//155 113//155 70//155
f 113//156 72//156 70//156
f 62//157 74//157 71//157
f 71//158 74//158 61//158
f 75//159 112//159 76//159
f 75//160 60//160 112//160
f 60//161 110//161 112//161
f 112//162 77//162 76//162
f 77//163 65//163 66//163
f 112//164 111//164 77//164
f 77//165 111//165 65//165
f 111//166 63//166 65//166
f 80//167 113//167 69//167
f 82//168 72//168 113//168
f 82//169 81//169 72//169
f 57//170 56//170 84//170
f 84//171 59//171 74//171
f 56//172 85//172 84//172
f 84//173 85//173 59//173
f 85//174 86//174 60//174
f 86//175 95//175 60//175
f 95//176 110//176 60//176
f 86//177 47//177 95//177
f 94//178 111//178 110//178
f 94//179 88//179 111//179
f 94//180 45//180 88//180
f 88//181 63//181 111//181
f 45//182 87//182 88//182
f 80//183 82//183 113//183
f 80//184 58//184 82//184
f 80//185 89//185 58//185
f 52//186 48//186 89//186
f 89//187 48//187 58//187
f 56//188 92//188 85//188
f 85//189 92//189 54//189
f 56//190 55//190 92//190
f 55//191 93//191 92//191
f 95//192 94//192 110//192
f 96//193 45//193 94//193
f 96//194 97//194 45//194
f 87//195 78//195 63//195
f 87//196 98//196 78//196
f 101//197 48//197 52//197
f 104//198 93//198 55//198
f 109//199 108//199 97//199
f 108//200 44//200 97//200
f 106//201 114//201 102//201
f 106//202 102//202 100//202
f 66//203 68//203 73//203
f 66//204 67//204 68//204
f 68//205 71//205 73//205
f 61//206 75//206 73//206
f 73//207 75//207 76//207
f 76//208 66//208 73//208
f 76//209 77//209 66//209
f 102//210 114//210 103//210
f 114//211 104//211 103//211
f 114//212 105//212 104//212
f 114//213 106//213 105//213
f 108//214 106//214 100//214
